<svg xmlns="http://www.w3.org/2000/svg" xmlns:xlink="http://www.w3.org/1999/xlink" width="1920" zoomAndPan="magnify" viewBox="0 0 1440 809.999993" height="1080" preserveAspectRatio="xMidYMid meet" version="1.0"><defs><clipPath id="f23e927b89"><path d="M 156 164 L 1311 164 L 1311 780.484375 L 156 780.484375 Z M 156 164 " clip-rule="nonzero"/></clipPath></defs><rect x="-144" width="1728" fill="#ffffff" y="-80.999999" height="971.999992" fill-opacity="1"/><rect x="-144" width="1728" fill="#ffffff" y="-80.999999" height="971.999992" fill-opacity="1"/><path fill="#ffad9c" d="M 1076.589844 273.457031 L 1018.851562 296.742188 C 1018.226562 296.996094 1017.484375 296.683594 1017.226562 296.03125 L 1009.414062 286.453125 L 1009.359375 286.566406 L 1002.4375 297.078125 L 1002.710938 300.074219 C 1003.109375 300.417969 1003.195312 300.988281 1002.9375 301.441406 L 965.914062 360.636719 C 963.007812 365.992188 957.394531 369.324219 951.300781 369.324219 L 939.535156 369.324219 C 935.546875 369.324219 931.703125 367.898438 928.683594 365.308594 L 911.914062 351.378906 L 902.304688 411.324219 L 940.710938 743.539062 C 940.796875 744.167969 940.3125 744.707031 939.683594 744.707031 L 937.292969 744.707031 L 966.449219 763.25 C 968.472656 764.386719 969.753906 766.550781 969.753906 768.917969 L 969.9375 772.4375 C 969.9375 773.179688 969.335938 773.777344 968.597656 773.777344 L 921.128906 771.648438 C 920.617188 771.648438 920.132812 771.332031 919.933594 770.847656 L 916.058594 766.574219 C 915.832031 766.175781 915.261719 766.175781 915.035156 766.574219 L 909.246094 772.28125 C 909.015625 772.652344 908.589844 772.90625 908.132812 772.90625 L 900.285156 773.621094 C 899.542969 773.621094 898.945312 773.019531 898.945312 772.28125 L 900.371094 744.550781 L 898.265625 744.550781 C 897.722656 744.550781 897.265625 744.152344 897.210938 743.609375 L 861.851562 470.527344 L 812.207031 744.460938 C 812.121094 744.886719 811.777344 745.171875 811.351562 745.171875 L 809.386719 745.171875 C 811.179688 754.230469 811.292969 763.136719 809.898438 772.878906 C 809.785156 773.535156 809.242188 774.019531 808.558594 774.019531 L 799.621094 773.375 C 799.167969 773.375 798.738281 773.148438 798.484375 772.75 L 794.121094 766.851562 C 793.867188 766.453125 793.296875 766.453125 793.070312 766.851562 L 789.25 773.519531 C 789.019531 773.917969 788.59375 774.175781 788.136719 774.175781 L 741.050781 773.546875 C 740.308594 773.546875 739.738281 772.949219 739.738281 772.238281 L 739.738281 769.003906 C 739.738281 765.957031 741.332031 763.109375 743.984375 761.542969 L 771.902344 745.6875 L 771.164062 745.6875 L 813.527344 413.386719 L 806.4375 372.886719 L 798.859375 376.933594 C 793.675781 379.664062 788.035156 381.460938 782.226562 382.171875 L 772.453125 383.367188 C 769.605469 383.710938 766.84375 382.371094 765.363281 379.921875 L 754.980469 363.9375 C 753.757812 361.941406 753.585938 359.464844 754.496094 357.328125 L 784.945312 280.933594 C 789.390625 269.796875 793.789062 267.394531 804.667969 262.382812 L 824.972656 251.144531 L 836.234375 238.117188 L 839.070312 229.128906 L 839.566406 227.546875 L 839.453125 227.46875 L 839.359375 227.410156 C 839.144531 227.339844 838.96875 227.226562 838.757812 227.152344 C 837.996094 226.871094 837.25 226.574219 836.566406 226.210938 C 836.222656 226.027344 835.929688 225.804688 835.605469 225.601562 C 835.105469 225.285156 834.601562 224.976562 834.148438 224.621094 C 833.835938 224.375 833.566406 224.101562 833.277344 223.839844 C 832.882812 223.476562 832.488281 223.117188 832.136719 222.726562 C 831.875 222.433594 831.648438 222.128906 831.410156 221.824219 C 831.101562 221.421875 830.800781 221.023438 830.535156 220.601562 C 830.324219 220.277344 830.140625 219.945312 829.957031 219.609375 C 829.730469 219.1875 829.519531 218.769531 829.335938 218.335938 C 829.179688 217.980469 829.039062 217.628906 828.914062 217.269531 C 828.765625 216.851562 828.640625 216.433594 828.53125 216.011719 C 828.433594 215.632812 828.339844 215.257812 828.269531 214.882812 C 828.195312 214.484375 828.15625 214.097656 828.117188 213.703125 C 828.074219 213.308594 828.03125 212.914062 828.023438 212.527344 C 828.019531 212.445312 828.003906 212.363281 828.003906 212.28125 C 828.003906 211.792969 828.042969 211.308594 828.097656 210.832031 C 828.109375 210.730469 828.097656 210.621094 828.109375 210.519531 C 828.109375 210.515625 828.113281 210.507812 828.113281 210.503906 C 819.621094 181.539062 840.183594 171.265625 860.769531 170.867188 C 876.4375 170.5625 891.285156 174.441406 891.285156 189.367188 C 891.285156 192.070312 891.691406 194.960938 890.582031 198.035156 C 890.582031 198.035156 890.582031 198.039062 890.582031 198.039062 C 890.667969 200.71875 890.695312 203.339844 890.609375 205.875 C 890.601562 205.96875 890.628906 206.0625 890.644531 206.15625 C 890.65625 206.222656 890.65625 206.289062 890.675781 206.355469 C 890.726562 206.496094 890.800781 206.632812 890.894531 206.757812 C 891.710938 207.816406 892.421875 208.867188 893.023438 209.894531 C 895.203125 213.597656 895.980469 217.011719 895.234375 219.597656 C 895.222656 219.636719 895.203125 219.671875 895.191406 219.710938 C 894.679688 221.371094 893.523438 222.667969 891.714844 223.480469 C 890.789062 223.898438 889.710938 224.199219 888.4375 224.339844 C 888.277344 224.355469 888.140625 224.433594 888.03125 224.542969 C 887.945312 224.625 887.871094 224.722656 887.847656 224.84375 C 887.367188 226.527344 886.8125 228.160156 886.226562 229.773438 C 886 230.390625 885.746094 230.988281 885.503906 231.59375 C 884.949219 232.972656 884.394531 234.347656 883.746094 235.667969 C 883.394531 236.371094 882.855469 236.925781 882.222656 237.339844 C 881.472656 237.835938 880.585938 238.128906 879.65625 238.128906 L 878.707031 238.128906 L 878.964844 240.769531 L 879.199219 243.023438 L 890.863281 255.511719 L 908.996094 263.289062 C 919.792969 267.675781 928.566406 275.964844 933.578125 286.503906 L 950.050781 321.921875 C 950.5625 322.917969 951.988281 323.003906 952.640625 322.09375 L 980.792969 280.855469 C 981.191406 280.316406 982.015625 280.230469 982.5 280.6875 L 984.207031 280.214844 L 986.160156 270.835938 L 987.734375 263.257812 C 988.074219 261.613281 988.929688 260.136719 990.140625 258.988281 C 990.253906 258.878906 990.351562 258.757812 990.472656 258.652344 L 994.703125 255.078125 L 996.539062 253.523438 L 985.121094 218.132812 C 984.863281 217.476562 985.175781 216.734375 985.832031 216.480469 L 1044.640625 194.167969 C 1045.292969 193.914062 1046.007812 194.226562 1046.261719 194.878906 L 1077.304688 271.832031 C 1077.558594 272.488281 1077.246094 273.230469 1076.589844 273.457031 Z M 551.328125 388.441406 C 552.238281 393.679688 551.8125 399.09375 550.074219 404.164062 L 546.429688 414.703125 C 545.316406 417.921875 543.695312 420.941406 541.613281 423.644531 L 525.957031 446.457031 L 530.777344 479.875 C 532.714844 486.96875 533.769531 494.261719 533.882812 501.609375 L 542.726562 723.566406 C 542.726562 724.078125 542.324219 724.503906 541.8125 724.503906 L 538.980469 727.121094 L 536.730469 742.476562 C 536.585938 743.441406 536.585938 744.410156 536.757812 745.351562 C 538.324219 754.808594 536.941406 761.769531 535.542969 772.136719 C 535.375 773.363281 534.292969 774.300781 533.066406 774.300781 L 527.605469 776.476562 C 526.75 776.476562 526.09375 775.792969 526.09375 774.941406 L 525.148438 764.355469 C 525.148438 763.757812 524.410156 763.472656 523.980469 763.929688 L 512.0625 774.941406 C 511.519531 775.539062 510.75 775.878906 509.953125 775.878906 L 473.257812 776.253906 C 472.058594 776.253906 471.089844 775.285156 471.089844 774.089844 L 471.992188 769.183594 C 471.992188 766.902344 473.191406 764.765625 475.15625 763.597656 L 483.039062 756.800781 L 503.003906 744.78125 C 504.171875 744.097656 504.886719 742.816406 504.886719 741.476562 L 504.886719 727.121094 L 501.929688 725.242188 C 501.445312 725.242188 501.046875 724.84375 501.015625 724.359375 L 488.445312 519.289062 C 488.414062 519.0625 486.0625 519 486.0625 519.226562 L 470.179688 723.277344 C 470.148438 723.847656 469.664062 724.277344 469.125 724.277344 L 464.152344 727.121094 L 461.902344 742.476562 C 461.761719 743.441406 461.898438 744.398438 461.933594 745.351562 C 462.332031 757.027344 461.621094 762.183594 460.222656 772.550781 C 460.050781 773.773438 458.96875 774.714844 457.746094 774.714844 L 452.433594 775.871094 C 451.582031 775.871094 450.925781 775.1875 450.925781 774.332031 L 450.542969 762.617188 C 450.542969 762.015625 449.800781 761.730469 449.375 762.1875 L 436.175781 773.3125 C 435.636719 773.910156 434.867188 774.253906 434.070312 774.253906 L 399.210938 774.714844 C 398.015625 774.714844 397.046875 773.746094 397.046875 772.550781 L 396.941406 768.835938 C 396.941406 766.554688 398.136719 764.421875 400.101562 763.253906 L 408.210938 756.800781 L 428.179688 744.78125 C 429.347656 744.097656 430.058594 742.816406 430.058594 741.476562 L 430.058594 727.121094 L 430.054688 727.117188 L 430.050781 727.117188 L 427.871094 725.292969 C 427.273438 725.292969 426.789062 724.78125 426.816406 724.183594 L 433.683594 493.515625 C 433.796875 488.472656 434.253906 483.460938 435.050781 478.503906 L 446.015625 417.164062 L 443.820312 404.632812 L 395.949219 425.023438 C 395.207031 425.308594 394.382812 424.9375 394.070312 424.195312 L 391.121094 424.144531 L 381.894531 432.972656 C 379.699219 435.050781 376.910156 436.332031 373.917969 436.648438 L 359.515625 438.042969 L 359.515625 438.050781 L 347.898438 442.375 L 344.238281 443.738281 C 343.890625 443.867188 343.523438 443.898438 343.167969 443.980469 C 340.589844 444.585938 337.878906 444.0625 335.75 442.441406 C 335.667969 442.382812 335.574219 442.351562 335.492188 442.285156 L 326.511719 435.160156 L 310.824219 422.722656 L 306.796875 424.207031 C 306.484375 424.691406 305.828125 424.832031 305.34375 424.546875 L 296.03125 418.105469 C 295.546875 417.792969 295.402344 417.167969 295.6875 416.683594 L 296.570312 415.230469 L 257.144531 390.585938 L 253.996094 416.652344 L 283.265625 585.488281 C 284.746094 594.316406 284.40625 603.347656 282.296875 612.035156 L 251.363281 748.167969 L 269.433594 761.265625 C 270.941406 762.40625 271.796875 764.171875 271.796875 766.050781 L 271.980469 771.210938 C 271.980469 772.007812 271.351562 772.664062 270.554688 772.664062 L 251.84375 772.664062 C 247.140625 772.664062 243.082031 770.308594 238.75 768.542969 L 229.050781 765.632812 C 229.078125 765.886719 229.164062 766.144531 229.164062 766.402344 L 228.445312 775.332031 C 228.445312 776.414062 227.558594 777.296875 226.476562 777.296875 L 185.0625 778.3125 C 184.492188 778.3125 183.980469 778.027344 183.695312 777.515625 L 180.664062 773.152344 C 180.347656 772.582031 179.550781 772.582031 179.238281 773.152344 L 176.875 777.109375 C 176.589844 777.621094 176.078125 777.90625 175.507812 777.90625 L 165.976562 777.984375 C 165.265625 777.984375 164.609375 777.5 164.410156 776.789062 C 161.847656 767.332031 164.792969 757.476562 167.445312 748.046875 L 162.316406 747.960938 C 161.859375 747.960938 161.519531 747.589844 161.546875 747.136719 L 180.015625 604.84375 C 180.160156 600.796875 180.046875 596.722656 179.703125 592.679688 L 164.835938 485.703125 C 164.492188 481.886719 164.351562 478.039062 164.351562 474.222656 L 163.386719 299.113281 C 163.386719 286.011719 167.777344 276.382812 177.488281 267.554688 L 186.234375 259.578125 L 195.328125 242.132812 L 195.332031 242.125 L 196.523438 240.261719 L 200.363281 234.246094 C 196.410156 229.9375 194.296875 225.777344 193.488281 222.109375 C 191.785156 222.167969 191.054688 220.148438 189.492188 219.039062 C 188.070312 218.070312 188.246094 216.949219 188.5 215.269531 C 188.617188 214.5 188.839844 213.390625 188.898438 212.59375 C 188.957031 211.027344 188.039062 209.523438 186.816406 208.527344 C 185.589844 207.527344 184.167969 206.789062 183 205.707031 C 180.976562 203.882812 181.402344 202.722656 181.65625 200.015625 C 181.914062 197.3125 183.480469 194.777344 185.789062 193.324219 C 187.382812 192.355469 189.757812 193.683594 190.980469 192.257812 C 192.976562 189.980469 192.261719 186.476562 193.003906 183.542969 C 193.914062 180.039062 195.425781 179.621094 199.015625 179.363281 C 201.265625 179.222656 203.574219 179.960938 205.765625 179.476562 C 209.46875 178.679688 209.746094 175.117188 212.394531 172.382812 C 215.15625 169.535156 219.144531 167.542969 223.074219 168.226562 C 229.226562 169.277344 232.6875 175.148438 238.925781 175.0625 C 241.574219 175.007812 244.195312 173.640625 246.761719 174.351562 C 251.003906 175.519531 252.308594 180.902344 256.4375 182.441406 C 257.464844 182.808594 258.574219 182.894531 259.542969 183.324219 C 262.621094 184.632812 261.875 187.082031 261.617188 190.414062 C 261.390625 193.746094 261.738281 198.136719 263.789062 200.785156 C 264.585938 201.8125 265.695312 202.523438 266.691406 203.378906 C 269.058594 205.398438 270.941406 207.441406 270.058594 210.433594 C 268.835938 214.5625 265.007812 215.847656 263.980469 220.175781 C 262.839844 219.378906 263.339844 218.023438 263.113281 216.65625 C 262.628906 213.921875 264.351562 211.199219 262.984375 208.636719 C 262.785156 208.265625 262.527344 207.925781 262.269531 207.613281 C 261.871094 207.183594 261.679688 206.78125 261.28125 206.382812 C 260.910156 206.011719 260.21875 205.761719 259.734375 205.5625 C 259.167969 205.332031 257.820312 205.875 257.25 205.730469 C 257.277344 208.40625 257.191406 211.058594 256.878906 213.621094 C 256.851562 213.859375 256.84375 214.097656 256.824219 214.335938 C 256.695312 216.003906 256.816406 217.683594 257.292969 219.285156 C 257.328125 219.410156 257.351562 219.535156 257.390625 219.660156 C 257.667969 220.480469 257.914062 221.265625 258.136719 222.023438 C 260.183594 228.914062 260.089844 233.171875 257.296875 235.125 C 255.785156 236.179688 253.496094 236.574219 250.300781 236.320312 C 249.957031 236.296875 249.621094 236.457031 249.414062 236.753906 C 249.402344 236.773438 249.378906 236.78125 249.367188 236.800781 C 249.089844 237.316406 248.773438 237.894531 248.453125 238.464844 C 247.695312 239.84375 246.859375 241.304688 246.019531 242.753906 C 245.328125 243.953125 244.644531 245.125 244.035156 246.15625 C 243.617188 246.863281 243.058594 247.433594 242.445312 247.933594 C 241.09375 249.042969 239.371094 249.648438 237.566406 249.511719 L 237.410156 254.691406 L 237.234375 260.703125 L 237.226562 260.699219 L 237.226562 260.703125 L 238.261719 276.519531 L 243.390625 286.320312 L 284.804688 320.734375 C 285.519531 321.363281 286.542969 321.503906 287.371094 321.046875 L 318.5 304.007812 L 318.214844 303.578125 C 317.699219 302.8125 317.871094 301.757812 318.613281 301.214844 L 326.566406 294.238281 C 327.332031 293.636719 328.472656 293.839844 329.042969 294.636719 L 331.761719 295.882812 L 331.761719 295.878906 L 338.007812 287.8125 L 347.171875 275.972656 C 347.171875 275.972656 347.171875 275.96875 347.175781 275.96875 C 347.769531 275.203125 348.449219 274.46875 349.214844 273.84375 C 349.21875 273.839844 349.222656 273.835938 349.226562 273.832031 L 356.050781 268.085938 C 357.421875 266.929688 359.625 267.867188 359.574219 269.660156 C 359.527344 271.453125 358.941406 273.425781 357.375 275.535156 C 357.167969 275.816406 357.050781 276.144531 356.894531 276.457031 C 356.496094 277.257812 356.214844 278.113281 356.171875 279.019531 L 355.917969 284.09375 L 365.277344 273.492188 C 365.214844 271.527344 365.574219 269.878906 366.144531 268.445312 C 366.78125 266.851562 367.683594 265.539062 368.699219 264.515625 C 369.835938 263.363281 371.078125 262.539062 372.128906 261.972656 C 373.242188 261.371094 374.5625 261.566406 375.539062 262.320312 C 375.738281 262.46875 375.949219 262.613281 376.113281 262.8125 L 378.964844 266.332031 L 380.25 267.914062 C 380.363281 268.054688 380.4375 268.21875 380.535156 268.371094 C 381.246094 269.480469 381.472656 270.851562 381.097656 272.125 L 375.054688 292.496094 L 375.03125 292.574219 L 375.03125 292.578125 C 375.015625 292.621094 374.996094 292.65625 374.980469 292.699219 C 374.519531 294.21875 373.832031 295.652344 372.941406 296.941406 C 372.570312 297.476562 372.144531 297.972656 371.710938 298.457031 C 371.605469 298.570312 371.523438 298.707031 371.414062 298.820312 C 371.382812 298.855469 371.339844 298.882812 371.304688 298.917969 C 370.773438 299.460938 370.210938 299.976562 369.601562 300.441406 L 346.871094 317.738281 L 346.859375 317.726562 L 348.945312 324.117188 C 349.488281 324.886719 349.316406 325.9375 348.574219 326.507812 L 340.148438 332.699219 C 339.347656 333.296875 338.238281 333.125 337.667969 332.300781 L 336.785156 331.046875 L 288.847656 365.355469 L 312.730469 386.460938 C 313.042969 385.976562 313.695312 385.832031 314.179688 386.148438 L 325.65625 391.738281 C 326.140625 392.050781 326.308594 392.675781 325.996094 393.191406 L 327.382812 395.367188 L 343.613281 400.058594 L 348.996094 401.613281 L 352.015625 400.984375 L 379.445312 395.261719 L 381.609375 395.253906 C 381.324219 394.539062 381.609375 393.769531 382.261719 393.402344 L 442.980469 360.445312 L 442.238281 343.183594 C 441.839844 334.125 444.066406 327.320312 448.882812 319.628906 L 460.519531 298.886719 L 466.234375 284.117188 L 466.859375 283.890625 L 468.539062 262.582031 L 461.277344 261.617188 C 459.113281 261.332031 457.433594 259.621094 457.148438 257.484375 C 456.433594 252.445312 455.949219 246.207031 456.035156 242.191406 C 447.863281 238.230469 450.398438 232.390625 458.683594 225.613281 L 459.453125 219.101562 C 458.625 214.515625 460.136719 209.757812 463.554688 206.59375 C 474.351562 196.597656 482.957031 196.042969 495.261719 199.546875 C 512.011719 204.304688 523.410156 215.636719 533.210938 242.554688 C 534.578125 246.371094 533.609375 250.699219 530.53125 253.351562 C 523.125 259.703125 515.878906 264.976562 506.253906 267.3125 L 506.878906 269.675781 L 512.714844 285.050781 L 527.355469 301.398438 C 534.304688 309.175781 538.976562 318.773438 540.796875 329.054688 Z M 241.390625 586.621094 L 222.71875 517.113281 C 222.546875 516.230469 218.71875 517.265625 218.71875 518.148438 L 212.308594 592.054688 C 212.308594 597.070312 212.023438 602.082031 211.425781 607.039062 L 201.140625 746.835938 C 201.082031 747.234375 200.742188 747.519531 200.34375 747.519531 L 197.035156 750.835938 L 210.132812 757.507812 C 211.15625 749.671875 217.878906 737.015625 222.09375 730.949219 L 215.710938 728.160156 C 215.394531 728.042969 215.226562 727.730469 215.28125 727.390625 L 241.734375 604.050781 C 242.730469 598.269531 242.617188 592.34375 241.390625 586.621094 Z M 690.652344 323.046875 L 690.652344 615.378906 L 696.351562 615.378906 L 696.351562 317.800781 C 694.921875 319.105469 693.484375 320.386719 692.066406 321.722656 C 691.582031 322.148438 691.125 322.609375 690.652344 323.046875 Z M 692.347656 196.058594 C 692.257812 195.953125 692.207031 195.847656 692.164062 195.742188 C 691.660156 195.515625 691.160156 195.285156 690.652344 195.078125 L 690.652344 300.628906 C 692.488281 298.742188 694.378906 296.902344 696.351562 295.160156 L 696.351562 194.667969 C 695.28125 195.265625 694.234375 195.84375 693.148438 196.453125 C 692.96875 196.550781 692.609375 196.375 692.347656 196.058594 Z M 669.617188 343.507812 C 669.121094 343.976562 668.636719 344.449219 668.132812 344.921875 C 667.984375 345.054688 667.539062 344.945312 667.101562 344.707031 C 667.089844 344.707031 667.082031 344.707031 667.074219 344.710938 C 667.078125 344.742188 667.09375 344.765625 667.097656 344.800781 C 667.152344 345.148438 667.132812 345.421875 667.054688 345.480469 C 666.171875 346.109375 665.382812 346.6875 664.550781 347.289062 C 674.085938 417.351562 673.539062 529.019531 672.253906 615.378906 L 677.953125 615.378906 C 679.25 527.960938 679.800781 414.613281 669.902344 344.316406 C 669.863281 344.023438 669.738281 343.761719 669.617188 343.507812 Z M 669.617188 343.507812 " fill-opacity="1" fill-rule="nonzero"/><path fill="#ffae9e" d="M 1303.105469 405.957031 L 1292.761719 379.621094 C 1292.308594 378.597656 1288.210938 377.085938 1288.210938 377.085938 L 1282.375 358.289062 L 1282.371094 358.289062 C 1295.160156 347.351562 1295.503906 331.246094 1289.804688 318.257812 C 1293.421875 317.605469 1296.8125 315.867188 1299.460938 313.101562 C 1306.609375 305.613281 1306.78125 298.40625 1298.691406 290.65625 C 1290.632812 282.9375 1283.421875 282.359375 1276.273438 289.847656 C 1273.113281 293.125 1271.164062 297.78125 1271.023438 302.167969 C 1251.660156 296.957031 1228.824219 302.773438 1233.039062 330.753906 C 1233.039062 330.761719 1233.039062 330.765625 1233.039062 330.773438 C 1232.390625 331.480469 1231.800781 332.15625 1231.246094 332.816406 C 1231.074219 333.023438 1230.917969 333.222656 1230.753906 333.429688 C 1230.386719 333.882812 1230.035156 334.328125 1229.714844 334.761719 C 1229.554688 334.972656 1229.398438 335.1875 1229.253906 335.394531 C 1228.949219 335.824219 1228.671875 336.238281 1228.414062 336.644531 C 1228.304688 336.816406 1228.1875 336.996094 1228.085938 337.164062 C 1227.445312 338.238281 1226.964844 339.242188 1226.652344 340.171875 C 1226.601562 340.328125 1226.574219 340.476562 1226.53125 340.628906 C 1226.449219 340.910156 1226.371094 341.191406 1226.324219 341.460938 C 1226.296875 341.621094 1226.289062 341.769531 1226.269531 341.921875 C 1226.242188 342.175781 1226.21875 342.425781 1226.21875 342.664062 C 1226.21875 342.804688 1226.234375 342.941406 1226.246094 343.082031 C 1226.265625 343.320312 1226.292969 343.554688 1226.339844 343.78125 C 1226.367188 343.902344 1226.402344 344.019531 1226.4375 344.140625 C 1226.503906 344.371094 1226.589844 344.601562 1226.691406 344.820312 C 1226.738281 344.917969 1226.785156 345.011719 1226.839844 345.109375 C 1226.96875 345.339844 1227.117188 345.566406 1227.285156 345.78125 C 1227.339844 345.851562 1227.390625 345.925781 1227.453125 345.992188 C 1227.652344 346.230469 1227.882812 346.457031 1228.132812 346.675781 C 1228.179688 346.71875 1228.222656 346.757812 1228.269531 346.800781 C 1228.898438 347.320312 1229.664062 347.789062 1230.570312 348.207031 C 1230.582031 348.210938 1230.59375 348.21875 1230.605469 348.222656 C 1231.078125 348.4375 1231.582031 348.644531 1232.128906 348.832031 C 1232.355469 352.621094 1232.640625 357.917969 1233.867188 362.105469 C 1234.464844 364.070312 1236.257812 365.382812 1238.28125 365.382812 L 1246.417969 365.382812 L 1245.328125 376.257812 L 1244.035156 389.109375 L 1243.691406 389.195312 C 1243.636719 389.210938 1243.601562 389.246094 1243.546875 389.265625 C 1241.597656 389.980469 1241.988281 393.113281 1240.992188 395.054688 L 1226.917969 422.167969 C 1224.101562 427.609375 1222.738281 432.773438 1223.050781 438.925781 L 1223.480469 447.554688 L 1210.90625 457.105469 C 1209.710938 458.015625 1208.203125 458.445312 1206.722656 458.300781 L 1179.117188 453.234375 C 1178.777344 453.207031 1178.460938 453.433594 1178.378906 453.777344 L 1177.359375 454.359375 L 1177.359375 454.355469 L 1156.074219 451.535156 C 1155.339844 451.4375 1154.609375 451.304688 1153.878906 451.171875 C 1153.875 451.171875 1153.867188 451.171875 1153.863281 451.171875 C 1152.636719 450.945312 1151.421875 450.695312 1150.210938 450.375 L 1124.601562 443.652344 C 1121.667969 442.886719 1118.59375 443.199219 1115.859375 444.507812 L 1085.265625 459.433594 C 1085.023438 459.554688 1084.8125 459.707031 1084.628906 459.882812 C 1084.445312 460.0625 1084.292969 460.261719 1084.171875 460.476562 C 1084.171875 460.476562 1084.171875 460.480469 1084.167969 460.480469 C 1083.929688 460.90625 1083.808594 461.402344 1083.816406 461.902344 C 1083.816406 461.914062 1083.816406 461.921875 1083.816406 461.929688 C 1083.816406 461.933594 1083.8125 461.9375 1083.8125 461.941406 L 1059.542969 465.378906 C 1058.832031 465.378906 1058.175781 464.925781 1057.917969 464.242188 L 1026.253906 375.90625 C 1025.996094 375.25 1025.371094 374.792969 1024.65625 374.792969 L 1017.210938 373.644531 C 1016.042969 373.644531 1015.214844 374.785156 1015.585938 375.894531 L 1049.882812 471.929688 C 1050.113281 472.640625 1050.765625 473.097656 1051.507812 473.097656 L 1149.910156 476.179688 L 1149.910156 476.183594 L 1149.925781 476.1875 L 1167.246094 485.09375 L 1169.75 486.378906 L 1169.8125 488.71875 C 1169.699219 489.117188 1169.984375 489.515625 1170.382812 489.574219 L 1205.855469 494.753906 C 1209.074219 495.210938 1212.375 494.582031 1215.195312 492.902344 L 1224.910156 487.726562 L 1225.621094 504.816406 L 1114.460938 582.550781 C 1111.527344 584.515625 1109.789062 587.820312 1109.789062 591.351562 L 1108.527344 599.691406 C 1108.527344 600.546875 1109.066406 601.34375 1109.863281 601.628906 L 1112.953125 604.527344 L 1111.15625 723.050781 C 1111.042969 729.515625 1107.996094 735.582031 1102.871094 739.511719 L 1084.449219 753.605469 L 1084.441406 753.613281 L 1072.410156 761.175781 C 1069.136719 762.714844 1067.027344 766.015625 1067.027344 769.664062 L 1067.574219 774.175781 C 1067.574219 775.429688 1068.597656 776.425781 1069.824219 776.425781 L 1112.777344 774.914062 C 1113.40625 774.914062 1114.003906 774.660156 1114.402344 774.175781 L 1128.636719 761.355469 C 1129.121094 760.8125 1130.003906 761.125 1130.003906 761.867188 L 1131 775.179688 C 1131 775.550781 1131.3125 775.863281 1131.683594 775.863281 L 1141.164062 776.261719 C 1141.507812 776.261719 1141.820312 776.03125 1141.878906 775.691406 C 1142.417969 772.445312 1143.058594 769.144531 1143.371094 765.839844 L 1160.679688 763.988281 C 1161.277344 763.988281 1161.875 763.703125 1162.246094 763.25 L 1176.394531 751.070312 C 1176.820312 750.554688 1177.648438 750.871094 1177.648438 751.523438 L 1178.683594 763.25 C 1178.683594 764.386719 1179.625 765.328125 1180.761719 765.328125 L 1187.867188 765.332031 C 1188.890625 765.332031 1189.773438 764.589844 1189.914062 763.59375 C 1192.082031 750.039062 1193.929688 738.40625 1191.710938 723.199219 C 1191.710938 723.195312 1191.710938 723.195312 1191.710938 723.191406 C 1196.238281 694.738281 1198.945312 665.65625 1199.316406 635.691406 L 1199.328125 635.6875 L 1203.402344 634.988281 C 1204.683594 635.445312 1206.105469 634.761719 1206.503906 633.453125 L 1216.128906 588.902344 C 1216.441406 587.878906 1217.183594 587.023438 1218.152344 586.566406 L 1292.207031 554.082031 C 1297.332031 551.574219 1301.207031 546.933594 1302.601562 541.378906 C 1305.820312 528.476562 1305.65625 517.59375 1300.527344 505.289062 L 1305.78125 420.511719 C 1306.152344 415.5 1305.242188 410.515625 1303.105469 405.957031 Z M 1143.371094 733.644531 C 1149.410156 707.496094 1153.855469 677.503906 1156.304688 647.597656 L 1160.28125 718.414062 C 1160.449219 721.445312 1159.277344 724.394531 1157.070312 726.476562 L 1152.84375 730.472656 L 1144.027344 738.800781 C 1143.855469 737.089844 1143.628906 735.382812 1143.371094 733.644531 Z M 461.898438 742.476562 C 461.757812 743.441406 461.757812 744.410156 461.925781 745.351562 L 431.878906 757.515625 C 428.746094 758.765625 425.355469 759.195312 422.023438 758.738281 L 408.210938 756.800781 L 408.207031 756.800781 L 414.550781 752.984375 L 417.425781 751.253906 L 428.175781 744.78125 C 429.34375 744.097656 430.054688 742.816406 430.054688 741.476562 L 430.054688 727.113281 L 464.144531 727.113281 Z M 536.730469 742.476562 C 536.585938 743.441406 536.585938 744.410156 536.757812 745.351562 L 506.707031 757.515625 C 503.574219 758.765625 500.1875 759.195312 496.851562 758.738281 L 483.039062 756.800781 L 503.003906 744.78125 C 504.171875 744.097656 504.886719 742.816406 504.886719 741.476562 L 504.886719 727.113281 L 538.976562 727.113281 Z M 458.6875 225.609375 C 459.3125 223.664062 460.203125 221.367188 461.210938 219.101562 L 485.148438 219.898438 C 487.316406 219.96875 489.3125 221.089844 490.503906 222.898438 L 497.398438 233.371094 C 511.976562 228.152344 517.25 244.855469 502.457031 253.039062 L 506.253906 267.3125 L 506.253906 267.320312 L 506.882812 269.683594 L 466.859375 283.886719 L 466.851562 283.890625 L 468.527344 262.582031 L 468.527344 262.578125 L 461.277344 261.613281 L 461.269531 261.613281 C 459.113281 261.328125 457.4375 259.632812 457.140625 257.476562 C 457.023438 256.628906 456.914062 255.738281 456.808594 254.835938 C 456.4375 251.574219 456.164062 248.101562 456.0625 245.152344 C 456.027344 244.085938 456.011719 243.074219 456.027344 242.1875 C 447.851562 238.234375 450.394531 232.394531 458.6875 225.609375 Z M 483.230469 510.894531 L 478.222656 520.78125 C 477.429688 522.34375 475.828125 523.328125 474.078125 523.328125 L 452.140625 523.328125 C 450.132812 523.328125 448.355469 522.039062 447.726562 520.136719 L 445.316406 512.808594 C 444.445312 510.164062 444.410156 507.3125 445.214844 504.644531 L 448.324219 494.324219 C 448.839844 492.617188 449.683594 491.027344 450.808594 489.648438 L 461.289062 476.824219 L 488.445312 492.898438 L 484.503906 507.566406 C 484.195312 508.71875 483.769531 509.832031 483.230469 510.894531 Z M 379.445312 395.261719 L 391.125 424.132812 L 381.886719 432.96875 C 379.710938 435.050781 376.902344 436.339844 373.90625 436.636719 L 365.59375 437.453125 L 359.515625 438.050781 L 359.515625 438.042969 L 361.820312 414.859375 L 355.570312 411.089844 C 355.027344 410.765625 354.464844 410.484375 353.886719 410.238281 C 352.367188 409.585938 350.742188 409.203125 349.082031 409.152344 C 346.90625 409.089844 344.992188 408.261719 343.453125 407.257812 C 341.519531 405.992188 342.121094 403.003906 344.386719 402.542969 L 348.984375 401.613281 L 348.988281 401.609375 L 349.6875 401.46875 L 352.015625 400.996094 L 352.011719 400.984375 L 379.441406 395.253906 Z M 379.445312 395.261719 " fill-opacity="1" fill-rule="nonzero"/><path fill="#ff3131" d="M 584.695312 166.601562 C 583.902344 164.261719 584.523438 161.898438 586.097656 161.320312 C 595.46875 157.765625 605.578125 155.917969 615.757812 155.746094 C 625.941406 155.546875 636.1875 157.074219 645.867188 160.128906 C 650.714844 161.632812 655.417969 163.539062 659.933594 165.753906 C 664.425781 168.027344 668.796875 170.476562 672.890625 173.324219 C 677.535156 176.480469 681.890625 179.988281 685.964844 183.773438 C 681.941406 177.722656 677.804688 171.859375 673.417969 166.253906 L 668.585938 160.332031 C 666.953125 158.382812 665.230469 156.519531 663.546875 154.632812 C 661.847656 152.757812 660.050781 150.972656 658.332031 149.132812 C 656.5625 147.335938 654.699219 145.632812 652.914062 143.863281 C 645.558594 136.984375 637.664062 130.738281 629.328125 125.058594 C 620.988281 119.375 612.207031 114.304688 603.207031 109.324219 C 601.71875 108.480469 601.34375 105.988281 602.386719 103.753906 C 603.335938 101.71875 605.1875 100.628906 606.703125 101.117188 C 616.984375 104.332031 626.839844 109.015625 636.042969 114.792969 C 645.25 120.566406 653.792969 127.484375 661.332031 135.347656 C 663.167969 137.363281 665.042969 139.335938 666.796875 141.414062 C 668.5 143.539062 670.246094 145.621094 671.867188 147.796875 C 672.167969 148.238281 672.480469 148.675781 672.785156 149.113281 C 671.261719 145.292969 669.734375 141.46875 668.207031 137.644531 L 660.691406 118.402344 C 655.675781 105.621094 650.664062 92.851562 645.652344 80.074219 C 640.597656 67.332031 635.449219 54.65625 630.574219 41.769531 C 629.765625 39.621094 631.589844 36.746094 634.648438 35.355469 C 637.441406 34.085938 640.3125 34.527344 641.433594 36.289062 C 649.054688 48.171875 655.40625 60.765625 661.078125 73.609375 C 666.757812 86.453125 671.714844 99.589844 676.066406 112.898438 C 678.257812 119.546875 680.261719 126.257812 682.140625 132.992188 C 683.386719 137.761719 684.625 142.519531 685.792969 147.300781 C 685.65625 143.082031 685.621094 138.855469 685.625 134.617188 C 685.628906 131.210938 685.828125 127.804688 686.003906 124.398438 C 686.144531 120.988281 686.457031 117.585938 686.808594 114.179688 C 688.171875 100.574219 690.714844 86.996094 694.734375 73.785156 C 698.75 60.59375 704.226562 47.6875 711.875 36.078125 C 713.148438 34.128906 716.492188 34 719.359375 35.765625 C 721.972656 37.375 723.34375 39.902344 722.671875 41.679688 C 718.0625 53.746094 714.082031 65.902344 710.832031 78.347656 C 707.785156 90.039062 705.375 101.9375 703.394531 113.976562 C 704.265625 111.484375 705.160156 109.003906 706.054688 106.519531 C 711.480469 92.386719 718.4375 78.800781 726.761719 66.152344 C 735.078125 53.503906 744.730469 41.738281 755.769531 31.503906 C 757.605469 29.78125 760.996094 30.34375 763.351562 32.746094 C 765.503906 34.9375 766.101562 37.847656 764.867188 39.578125 C 756.421875 51.269531 748.273438 62.945312 740.902344 75.089844 C 733.542969 87.230469 726.9375 99.785156 721.144531 112.765625 L 716.949219 122.570312 L 713.054688 132.53125 C 711.820312 135.882812 710.574219 139.238281 709.394531 142.625 L 706.03125 152.859375 C 705.019531 156.089844 704.054688 159.339844 703.113281 162.605469 C 703.394531 162.023438 703.660156 161.433594 703.949219 160.851562 C 706.5625 155.417969 709.714844 150.253906 713.03125 145.183594 C 714.738281 142.683594 716.457031 140.179688 718.367188 137.824219 C 720.21875 135.421875 722.101562 133.03125 724.15625 130.800781 C 732.175781 121.679688 741.339844 113.582031 751.238281 106.667969 C 761.125 99.730469 771.75 93.9375 782.988281 89.816406 C 784.859375 89.101562 787.480469 91.019531 788.855469 94.09375 C 790.109375 96.890625 789.957031 99.652344 788.582031 100.617188 C 779.171875 107.0625 769.917969 113.363281 761.113281 120.171875 C 752.304688 126.960938 743.917969 134.175781 736.070312 141.972656 C 734.058594 143.878906 732.179688 145.90625 730.28125 147.929688 C 728.328125 149.90625 726.527344 152.011719 724.699219 154.109375 C 720.921875 158.207031 717.539062 162.652344 714.074219 167.085938 C 710.339844 172 706.777344 177.097656 703.265625 182.324219 C 704.488281 181.1875 705.734375 180.070312 707.023438 179.003906 C 709.859375 176.597656 712.914062 174.480469 715.992188 172.371094 C 719.132812 170.371094 722.371094 168.503906 725.714844 166.835938 C 732.402344 163.507812 739.476562 160.917969 746.753906 159.183594 C 754.023438 157.441406 761.511719 156.507812 768.980469 156.867188 C 770.230469 156.921875 771.316406 158.960938 771.417969 161.425781 C 771.511719 163.671875 770.816406 165.488281 769.824219 165.746094 C 763.070312 167.457031 756.457031 169.082031 749.925781 171.03125 C 743.398438 172.980469 736.972656 175.207031 730.636719 177.75 C 727.472656 179.03125 724.328125 180.378906 721.199219 181.796875 C 718.03125 183.160156 714.988281 184.761719 711.84375 186.265625 C 706.695312 188.882812 701.578125 191.734375 696.351562 194.667969 C 695.28125 195.265625 694.234375 195.84375 693.148438 196.453125 C 692.96875 196.550781 692.609375 196.375 692.347656 196.058594 C 692.257812 195.953125 692.207031 195.847656 692.164062 195.742188 C 691.660156 195.515625 691.160156 195.285156 690.652344 195.078125 C 685.242188 192.875 679.78125 192.015625 674.257812 191.628906 C 672.667969 191.625 671.105469 191.5625 669.558594 191.480469 L 664.832031 191.609375 C 661.679688 191.765625 658.53125 191.957031 655.367188 192.320312 C 649.054688 192.992188 642.726562 193.976562 636.410156 195.144531 C 630.101562 196.328125 623.785156 197.703125 617.566406 199.105469 C 616.542969 199.335938 614.929688 197.6875 613.984375 195.414062 C 613.125 193.34375 613.214844 191.421875 614.136719 190.871094 C 620.339844 187.179688 626.992188 184.859375 633.785156 183.164062 C 640.585938 181.484375 647.578125 180.515625 654.664062 180.367188 C 658.195312 180.261719 661.773438 180.488281 665.320312 180.851562 L 670.085938 181.625 C 669.585938 181.390625 669.089844 181.136719 668.589844 180.90625 C 664.316406 179.011719 660.082031 177.121094 655.710938 175.660156 C 651.394531 174.074219 647.011719 172.738281 642.601562 171.644531 C 633.777344 169.433594 624.800781 168.214844 615.742188 168.007812 C 606.679688 167.800781 597.578125 168.636719 588.34375 169.949219 C 586.984375 170.132812 585.417969 168.730469 584.695312 166.601562 Z M 727.257812 276.765625 C 719.75 279.1875 712.757812 282.933594 706.261719 287.398438 C 702.800781 289.769531 699.496094 292.375 696.351562 295.160156 C 694.378906 296.902344 692.488281 298.742188 690.652344 300.628906 C 689.917969 301.390625 689.160156 302.132812 688.445312 302.914062 C 685.785156 305.832031 683.3125 308.90625 680.988281 312.078125 C 678.78125 315.347656 676.5625 318.578125 674.714844 322.046875 C 672.824219 325.46875 671.132812 329 669.714844 332.644531 C 669.808594 331.628906 669.894531 330.613281 669.964844 329.597656 C 670.335938 327.308594 670.691406 325.007812 671.117188 322.75 C 671.84375 319.257812 672.453125 315.777344 673.371094 312.355469 C 674.160156 308.917969 675.050781 305.507812 676.027344 302.128906 C 677.949219 295.359375 680.15625 288.683594 682.5625 282.035156 C 685.066406 275.375 687.5625 268.730469 690.089844 262 C 690.453125 260.996094 689.347656 259.386719 687.425781 258.222656 C 685.316406 256.945312 683 256.730469 682.25 257.75 C 677.742188 263.839844 674.125 270.542969 671.15625 277.535156 C 669.777344 280.773438 668.566406 284.085938 667.492188 287.445312 C 666.183594 280.515625 664.433594 273.628906 662.089844 266.882812 C 659.183594 258.558594 655.402344 250.367188 650.042969 243.085938 C 649.253906 242 646.671875 242.160156 643.941406 243.539062 C 640.941406 245.050781 638.832031 247.34375 639.21875 248.632812 C 641.574219 256.433594 643.945312 264.085938 646.132812 271.90625 C 648.300781 279.722656 650.339844 287.636719 652.363281 295.628906 L 655.386719 307.683594 C 656.449219 311.734375 657.503906 315.765625 658.566406 319.835938 C 658.867188 320.964844 659.175781 322.097656 659.480469 323.230469 C 657.835938 320.164062 655.941406 317.25 654.027344 314.335938 C 651.925781 311.332031 649.691406 308.417969 647.3125 305.625 C 642.558594 300.042969 637.269531 294.929688 631.582031 290.355469 C 625.890625 285.785156 619.804688 281.722656 613.25 278.542969 C 612.28125 278.0625 610.59375 279.011719 609.285156 280.832031 C 607.847656 282.832031 607.375 285.105469 608.222656 285.90625 C 613.335938 290.683594 618.558594 295.132812 623.648438 299.707031 C 628.722656 304.285156 633.691406 308.933594 638.511719 313.742188 C 640.914062 316.152344 643.296875 318.589844 645.632812 321.085938 C 648.042969 323.527344 650.261719 326.128906 652.597656 328.679688 C 656.363281 332.949219 660.0625 337.382812 663.859375 341.894531 C 659.8125 339.53125 655.402344 337.789062 650.824219 336.617188 C 647.917969 335.808594 644.929688 335.375 641.929688 334.996094 C 638.921875 334.6875 635.886719 334.582031 632.867188 334.710938 C 626.820312 334.929688 620.824219 335.96875 615.09375 337.703125 C 609.355469 339.425781 603.859375 341.832031 598.917969 345.136719 C 598.179688 345.617188 598.226562 347.480469 599.085938 349.558594 C 600.027344 351.832031 601.53125 353.519531 602.4375 353.332031 C 607.871094 352.132812 613.0625 350.726562 618.265625 349.550781 C 623.464844 348.371094 628.640625 347.367188 633.871094 346.640625 C 636.484375 346.265625 639.113281 345.964844 641.761719 345.765625 C 644.414062 345.441406 647.082031 345.410156 649.792969 345.273438 C 650.535156 345.25 651.304688 345.265625 652.054688 345.253906 C 650.542969 345.78125 649.0625 346.398438 647.605469 347.078125 C 645.636719 348.082031 643.75 349.246094 641.996094 350.566406 C 638.464844 353.1875 635.402344 356.339844 632.867188 359.796875 C 630.320312 363.246094 628.269531 367 627.066406 371.09375 C 626.878906 371.699219 628.117188 373.003906 630.035156 374.171875 C 632.136719 375.453125 634.234375 376.125 634.710938 375.683594 C 637.558594 372.988281 639.972656 370.1875 642.410156 367.496094 C 644.84375 364.804688 647.246094 362.191406 649.746094 359.695312 C 650.992188 358.441406 652.261719 357.210938 653.585938 356.03125 C 654.851562 354.753906 656.273438 353.683594 657.660156 352.476562 C 659.785156 350.75 662.101562 349.050781 664.550781 347.289062 C 665.382812 346.6875 666.171875 346.109375 667.054688 345.480469 C 667.132812 345.421875 667.152344 345.148438 667.097656 344.800781 C 667.09375 344.765625 667.078125 344.742188 667.074219 344.710938 C 667.082031 344.707031 667.089844 344.707031 667.101562 344.707031 C 667.539062 344.945312 667.984375 345.054688 668.132812 344.921875 C 668.636719 344.449219 669.121094 343.976562 669.617188 343.507812 C 674.734375 338.65625 679.476562 333.84375 684.21875 329.191406 C 686.414062 327.148438 688.496094 325.058594 690.652344 323.046875 C 691.125 322.609375 691.582031 322.148438 692.066406 321.722656 C 693.484375 320.386719 694.921875 319.105469 696.351562 317.800781 C 697.550781 316.707031 698.742188 315.585938 699.949219 314.507812 C 705.25 309.796875 710.65625 305.277344 716.195312 300.855469 C 721.738281 296.433594 727.425781 292.167969 733.066406 287.453125 C 733.894531 286.757812 733.554688 284.238281 732.203125 281.488281 C 730.722656 278.46875 728.515625 276.351562 727.257812 276.765625 Z M 677.539062 641.609375 L 638.863281 641.609375 C 638.71875 645.457031 638.664062 649.273438 638.664062 653.117188 L 724.597656 653.117188 C 724.542969 649.273438 724.371094 645.425781 724.140625 641.609375 Z M 319.898438 140.011719 L 344.753906 140.011719 C 344.753906 135.109375 341.910156 130.921875 337.804688 128.894531 C 340.320312 127.355469 342.140625 124.816406 342.6875 121.808594 L 360.847656 121.808594 C 361.394531 124.816406 363.214844 127.355469 365.730469 128.894531 C 361.621094 130.921875 358.777344 135.109375 358.777344 140.011719 L 383.636719 140.011719 C 383.636719 135.109375 380.789062 130.921875 376.683594 128.894531 C 379.714844 127.039062 381.757812 123.730469 381.757812 119.917969 C 381.757812 114.09375 377.035156 109.371094 371.207031 109.371094 C 367.332031 109.371094 363.976562 111.484375 362.144531 114.601562 C 360.957031 112.9375 359.367188 111.601562 357.519531 110.691406 C 360.550781 108.835938 362.589844 105.527344 362.589844 101.714844 C 362.589844 95.886719 357.867188 91.164062 352.042969 91.164062 C 346.214844 91.164062 341.492188 95.886719 341.492188 101.714844 C 341.492188 105.527344 343.535156 108.835938 346.566406 110.691406 C 344.554688 111.683594 342.84375 113.171875 341.628906 115.039062 C 339.863281 111.683594 336.382812 109.371094 332.328125 109.371094 C 326.503906 109.371094 321.777344 114.09375 321.777344 119.917969 C 321.777344 123.730469 323.820312 127.042969 326.851562 128.894531 C 322.742188 130.921875 319.898438 135.109375 319.898438 140.011719 Z M 1079.386719 108.585938 C 1085.34375 108.585938 1090.171875 103.753906 1090.171875 97.796875 C 1090.171875 91.839844 1085.34375 87.011719 1079.386719 87.011719 C 1073.429688 87.011719 1068.597656 91.839844 1068.597656 97.796875 C 1068.597656 103.753906 1073.429688 108.585938 1079.386719 108.585938 Z M 1053.765625 135.597656 C 1059.726562 135.597656 1064.554688 130.769531 1064.554688 124.8125 C 1064.554688 118.855469 1059.726562 114.027344 1053.765625 114.027344 C 1047.808594 114.027344 1042.980469 118.855469 1042.980469 124.8125 C 1042.980469 130.769531 1047.808594 135.597656 1053.765625 135.597656 Z M 1187.988281 195.714844 L 1164.121094 195.621094 L 1164.03125 219.488281 L 1187.816406 219.578125 L 1187.722656 243.363281 L 1211.589844 243.457031 L 1211.679688 219.589844 L 1187.898438 219.5 Z M 1354.289062 413.5625 L 1336.699219 413.5625 C 1334.703125 413.5625 1332.984375 414.972656 1332.59375 416.929688 L 1306.488281 547.984375 C 1306.097656 549.941406 1304.378906 551.351562 1302.382812 551.351562 L 1301.78125 551.351562 C 1300.230469 552.917969 1298.421875 554.234375 1296.40625 555.21875 L 1261.265625 572.386719 L 1255.679688 575.113281 L 1240.761719 582.402344 L 1255.679688 582.402344 L 1255.679688 760.8125 L 1246.765625 760.8125 C 1237.152344 760.8125 1229.359375 768.605469 1229.359375 778.222656 L 1229.359375 778.671875 L 1296.707031 778.675781 L 1296.707031 778.222656 C 1296.707031 768.605469 1288.910156 760.8125 1279.296875 760.8125 L 1270.382812 760.8125 L 1270.382812 582.402344 L 1325.441406 582.402344 C 1327.429688 582.402344 1329.132812 580.980469 1329.484375 579.023438 L 1358.40625 418.5 C 1358.875 415.929688 1356.898438 413.5625 1354.289062 413.5625 Z M 116.238281 501.523438 C 115.179688 501.523438 114.28125 500.746094 114.132812 499.695312 L 102.097656 415.457031 C 101.949219 414.40625 101.050781 413.628906 99.992188 413.628906 L 87.898438 413.628906 C 86.613281 413.628906 85.625 414.757812 85.785156 416.027344 L 99.480469 522.609375 C 99.617188 523.671875 100.523438 524.46875 101.589844 524.46875 L 103.324219 524.46875 L 81.5 749.910156 C 81.347656 751.476562 82.492188 752.871094 84.058594 753.019531 C 84.152344 753.027344 84.246094 753.035156 84.335938 753.035156 C 85.789062 753.035156 87.027344 751.933594 87.167969 750.460938 L 109.046875 524.46875 L 159.6875 524.46875 L 157.710938 501.523438 Z M 404.003906 487.089844 L 417.648438 750.039062 C 417.671875 750.472656 417.578125 750.875 417.425781 751.253906 L 414.550781 752.984375 C 413.164062 752.855469 412.035156 751.765625 411.960938 750.332031 L 400.386719 527.316406 L 303.261719 527.316406 L 291.691406 750.332031 C 291.613281 751.855469 290.351562 753.035156 288.847656 753.035156 C 288.796875 753.035156 288.746094 753.035156 288.699219 753.03125 C 287.125 752.949219 285.917969 751.609375 286 750.039062 L 299.644531 487.089844 L 292.199219 487.089844 C 290.894531 487.089844 289.839844 486.035156 289.839844 484.734375 L 289.839844 466.609375 C 289.839844 465.304688 290.894531 464.25 292.199219 464.25 L 411.453125 464.25 C 412.753906 464.25 413.808594 465.304688 413.808594 466.609375 L 413.808594 484.734375 C 413.808594 486.035156 412.753906 487.089844 411.453125 487.089844 Z M 400.09375 521.617188 L 398.308594 487.238281 C 398.304688 487.1875 398.328125 487.144531 398.328125 487.089844 L 305.320312 487.089844 C 305.320312 487.140625 305.34375 487.1875 305.339844 487.238281 L 303.558594 521.617188 Z M 600.066406 524.46875 C 601.046875 524.46875 601.871094 523.742188 601.996094 522.769531 L 615.738281 415.824219 C 615.886719 414.660156 614.980469 413.628906 613.808594 413.628906 L 601.347656 413.628906 C 600.378906 413.628906 599.558594 414.339844 599.421875 415.300781 L 587.34375 499.851562 C 587.207031 500.8125 586.382812 501.523438 585.417969 501.523438 L 541.625 501.523438 L 541.953125 524.46875 L 592.28125 524.46875 L 614.363281 750.464844 C 614.503906 751.933594 615.746094 753.035156 617.195312 753.035156 C 617.285156 753.035156 617.378906 753.027344 617.472656 753.019531 C 619.039062 752.867188 620.183594 751.472656 620.03125 749.90625 L 598.003906 524.46875 Z M 1169.558594 490.503906 L 1177.730469 491.6875 L 1177.730469 496.390625 C 1177.730469 498.292969 1176.191406 499.832031 1174.289062 499.832031 L 1167.789062 499.832031 L 1170.980469 540.320312 L 1165.09375 544.273438 L 1164.894531 541.742188 L 1007.394531 541.742188 L 988.941406 775.882812 C 988.824219 777.382812 987.46875 778.527344 985.863281 778.527344 C 985.789062 778.527344 985.710938 778.523438 985.636719 778.519531 C 983.933594 778.40625 982.652344 777.042969 982.777344 775.472656 L 1004.503906 499.832031 L 998 499.832031 C 996.097656 499.832031 994.558594 498.292969 994.558594 496.390625 L 994.558594 479.402344 C 994.558594 477.5 996.097656 475.960938 998 475.960938 L 1047.386719 475.960938 C 1047.632812 476.097656 1047.90625 476.1875 1048.203125 476.1875 L 1149.925781 476.1875 L 1167.351562 485.144531 L 1169.75 486.378906 L 1169.75 486.390625 L 1168.976562 489.644531 C 1168.878906 490.046875 1169.152344 490.445312 1169.558594 490.503906 Z M 1164.445312 536.046875 L 1161.609375 500.039062 C 1161.601562 499.96875 1161.636719 499.902344 1161.636719 499.832031 L 1010.652344 499.832031 C 1010.65625 499.902344 1010.6875 499.96875 1010.683594 500.039062 L 1007.84375 536.046875 Z M 1182.722656 767.984375 L 1183.347656 775.882812 C 1183.464844 777.382812 1184.820312 778.527344 1186.425781 778.527344 C 1186.5 778.527344 1186.578125 778.523438 1186.652344 778.519531 C 1188.355469 778.40625 1189.632812 777.042969 1189.511719 775.472656 L 1188.921875 767.984375 Z M 859.628906 326.359375 L 855.925781 331.164062 L 859.578125 330.523438 Z M 1004.742188 299.242188 L 1002.4375 297.078125 L 984.207031 280.214844 L 982.242188 278.390625 C 981.757812 277.9375 980.929688 278.023438 980.53125 278.5625 L 954.015625 316.132812 C 953.359375 317.042969 951.933594 316.960938 951.421875 315.960938 L 935.042969 281.554688 C 930.03125 271.015625 921.257812 262.726562 910.464844 258.339844 L 894.054688 251.675781 L 894.054688 275.542969 L 893.777344 275.300781 C 893.769531 275.296875 893.761719 275.300781 893.753906 275.296875 L 882.941406 265.867188 C 882.601562 265.570312 882.117188 265.503906 881.703125 265.6875 L 876.765625 267.96875 L 874.859375 268.851562 L 874.183594 275.929688 C 874.089844 276.972656 874.109375 278.023438 874.242188 279.058594 L 880.015625 321.601562 C 880.785156 321.402344 881.582031 321.230469 882.464844 321.117188 C 884.058594 320.890625 885.570312 321.914062 886.050781 323.453125 L 889.015625 333.109375 C 889.671875 335.21875 889.015625 337.496094 887.335938 338.949219 L 882.890625 342.820312 L 886.9375 372.558594 L 886.9375 372.671875 C 886.9375 372.957031 886.820312 373.242188 886.652344 373.46875 C 886.621094 373.46875 886.621094 373.5 886.621094 373.5 L 874.347656 386.289062 C 873.917969 386.742188 873.207031 386.773438 872.75 386.375 C 872.722656 386.34375 872.722656 386.34375 872.695312 386.316406 L 859.421875 373.15625 C 859.191406 372.957031 859.078125 372.671875 859.078125 372.359375 L 859.078125 372.332031 L 859.308594 353.304688 L 842.671875 353.304688 L 836.148438 326.699219 L 859.734375 317.644531 L 860.164062 280.640625 C 860.164062 279.253906 859.96875 277.871094 859.578125 276.539062 L 857.828125 270.742188 L 851.371094 268.730469 L 848.761719 267.921875 C 848.34375 267.796875 847.894531 267.914062 847.59375 268.226562 L 837.886719 278.421875 L 837.785156 278.226562 C 837.78125 278.21875 837.765625 278.21875 837.761719 278.210938 L 824.007812 251.679688 L 822.109375 248.023438 L 822.121094 248.015625 L 802.652344 256.945312 C 791.773438 261.957031 783.226562 270.957031 778.785156 282.09375 L 748.335938 358.488281 C 747.421875 360.625 747.59375 363.101562 748.820312 365.097656 L 761.4375 385.976562 C 762.917969 388.425781 765.679688 389.761719 768.53125 389.421875 L 778.300781 388.226562 C 784.109375 387.511719 789.75 385.71875 794.933594 382.984375 L 802.511719 378.9375 L 806.699219 413.234375 L 908.355469 413.234375 L 914.28125 358.515625 L 930.972656 372.902344 C 933.992188 375.492188 937.835938 376.917969 941.824219 376.917969 L 953.585938 376.917969 C 959.683594 376.917969 965.292969 373.585938 968.199219 368.230469 L 1004.972656 300.609375 C 1005.226562 300.152344 1005.140625 299.585938 1004.742188 299.242188 Z M 550.746094 416.628906 L 554.394531 406.070312 C 556.140625 401.023438 556.566406 395.617188 555.628906 390.359375 L 544.203125 326.105469 C 542.375 315.8125 537.710938 306.234375 530.742188 298.441406 L 516.113281 282.089844 L 512.195312 283.683594 L 471.058594 300.417969 L 466.246094 291.613281 L 462.242188 294.425781 L 457.816406 297.539062 L 445.550781 317.085938 C 440.730469 324.765625 438.359375 333.730469 438.746094 342.789062 L 439.480469 360.042969 L 379.773438 392.621094 C 379.121094 392.976562 378.839844 393.761719 379.117188 394.449219 L 379.441406 395.253906 L 379.445312 395.261719 L 391.125 424.132812 L 391.132812 424.144531 L 392.332031 427.105469 C 392.628906 427.84375 393.460938 428.207031 394.203125 427.921875 L 441.613281 409.863281 L 441.890625 416.386719 L 500.066406 416.386719 L 458.410156 473.945312 C 458.089844 474.386719 458.21875 475.003906 458.6875 475.28125 L 461.289062 476.824219 L 488.445312 492.898438 L 491.421875 494.660156 C 491.625 494.78125 491.851562 494.816406 492.066406 494.773438 C 492.28125 494.734375 492.484375 494.617188 492.625 494.429688 L 526.550781 450.585938 L 530.230469 445.832031 L 545.917969 425.558594 C 548 422.863281 549.632812 419.847656 550.746094 416.628906 Z M 550.746094 416.628906 " fill-opacity="1" fill-rule="nonzero"/><path fill="#5271ff" d="M 1023.46875 155.738281 L 1109.683594 155.738281 C 1110.417969 155.738281 1111.011719 155.144531 1111.011719 154.414062 L 1111.011719 68.195312 C 1111.011719 67.464844 1110.417969 66.871094 1109.683594 66.871094 L 1023.46875 66.871094 C 1022.734375 66.871094 1022.140625 67.464844 1022.140625 68.195312 L 1022.140625 154.414062 C 1022.140625 155.144531 1022.734375 155.738281 1023.46875 155.738281 Z M 1079.386719 87.011719 C 1085.34375 87.011719 1090.171875 91.839844 1090.171875 97.796875 C 1090.171875 103.753906 1085.34375 108.585938 1079.386719 108.585938 C 1073.429688 108.585938 1068.597656 103.753906 1068.597656 97.796875 C 1068.597656 91.839844 1073.429688 87.011719 1079.386719 87.011719 Z M 1053.765625 114.027344 C 1059.726562 114.027344 1064.554688 118.855469 1064.554688 124.8125 C 1064.554688 130.769531 1059.726562 135.597656 1053.765625 135.597656 C 1047.808594 135.597656 1042.980469 130.769531 1042.980469 124.8125 C 1042.980469 118.855469 1047.808594 114.027344 1053.765625 114.027344 Z M 406.003906 65.46875 L 300.730469 65.46875 C 299.558594 65.46875 298.605469 66.417969 298.605469 67.589844 L 298.605469 172.863281 C 298.605469 174.035156 299.558594 174.984375 300.730469 174.984375 L 406.003906 174.984375 C 407.175781 174.984375 408.125 174.035156 408.125 172.863281 L 408.125 67.589844 C 408.125 66.417969 407.175781 65.46875 406.003906 65.46875 Z M 358.777344 140.011719 C 358.777344 135.109375 361.621094 130.921875 365.730469 128.894531 C 363.214844 127.355469 361.394531 124.816406 360.847656 121.808594 L 342.6875 121.808594 C 342.140625 124.816406 340.320312 127.355469 337.804688 128.894531 C 341.910156 130.921875 344.753906 135.109375 344.753906 140.011719 L 319.898438 140.011719 C 319.898438 135.109375 322.742188 130.921875 326.851562 128.894531 C 323.820312 127.042969 321.777344 123.730469 321.777344 119.917969 C 321.777344 114.09375 326.503906 109.371094 332.328125 109.371094 C 336.382812 109.371094 339.863281 111.683594 341.628906 115.039062 C 342.84375 113.171875 344.554688 111.683594 346.566406 110.691406 C 343.535156 108.835938 341.492188 105.527344 341.492188 101.714844 C 341.492188 95.886719 346.214844 91.164062 352.042969 91.164062 C 357.867188 91.164062 362.589844 95.886719 362.589844 101.714844 C 362.589844 105.527344 360.550781 108.835938 357.519531 110.691406 C 359.367188 111.601562 360.957031 112.9375 362.144531 114.601562 C 363.976562 111.484375 367.332031 109.371094 371.207031 109.371094 C 377.035156 109.371094 381.757812 114.09375 381.757812 119.917969 C 381.757812 123.730469 379.714844 127.039062 376.683594 128.894531 C 380.789062 130.921875 383.636719 135.109375 383.636719 140.011719 Z M 511.375 53.851562 L 511.375 113.46875 C 511.375 114.640625 510.425781 115.589844 509.253906 115.589844 L 446.101562 115.589844 C 444.929688 115.589844 443.980469 114.640625 443.980469 113.46875 L 443.980469 53.851562 C 443.980469 52.679688 444.929688 51.726562 446.101562 51.726562 L 509.253906 51.726562 C 510.425781 51.726562 511.375 52.679688 511.375 53.851562 Z M 196.550781 118.105469 L 196.550781 53.90625 C 196.550781 52.734375 197.5 51.785156 198.671875 51.785156 L 262.871094 51.785156 C 264.042969 51.785156 264.992188 52.734375 264.992188 53.90625 L 264.992188 118.105469 C 264.992188 119.277344 264.042969 120.226562 262.871094 120.226562 L 198.671875 120.226562 C 197.5 120.226562 196.550781 119.277344 196.550781 118.105469 Z M 1143.769531 263.851562 L 1229.988281 263.851562 C 1230.71875 263.851562 1231.3125 263.261719 1231.3125 262.527344 L 1231.3125 176.3125 C 1231.3125 175.578125 1230.71875 174.984375 1229.988281 174.984375 L 1143.769531 174.984375 C 1143.039062 174.984375 1142.445312 175.578125 1142.445312 176.3125 L 1142.445312 262.527344 C 1142.445312 263.261719 1143.039062 263.851562 1143.769531 263.851562 Z M 1164.121094 195.621094 L 1187.988281 195.714844 L 1187.898438 219.5 L 1211.679688 219.589844 L 1211.589844 243.457031 L 1187.722656 243.363281 L 1187.816406 219.578125 L 1164.03125 219.488281 Z M 1081.511719 273.839844 C 1081.765625 274.488281 1081.445312 275.21875 1080.796875 275.472656 L 1016.320312 300.671875 C 1015.671875 300.925781 1014.941406 300.605469 1014.691406 299.957031 L 1009.414062 286.457031 L 1009.410156 286.449219 L 1012.90625 279.574219 C 1013.800781 277.816406 1015.222656 276.402344 1016.882812 275.335938 C 1021.1875 272.574219 1022.128906 268.4375 1022.164062 265.453125 C 1022.1875 263.710938 1020.242188 262.652344 1018.746094 263.546875 L 1003.96875 272.402344 L 996.726562 253.367188 L 996.542969 253.523438 L 996.53125 253.5 L 981.734375 215.636719 C 981.480469 214.988281 981.800781 214.257812 982.445312 214.003906 L 1046.925781 188.804688 C 1047.574219 188.550781 1048.304688 188.871094 1048.554688 189.519531 Z M 336.785156 333.46875 L 292.542969 366.238281 L 314.230469 383.730469 C 314.226562 383.738281 314.21875 383.738281 314.214844 383.746094 L 312.628906 386.371094 L 295.558594 414.597656 L 294.074219 417.050781 L 259.65625 398.480469 L 259.65625 417.164062 L 156.125 417.164062 L 156.125 300.019531 C 156.125 286.921875 161.644531 274.429688 171.332031 265.613281 L 180.097656 257.632812 L 180.09375 257.636719 L 185.589844 260.164062 L 228.394531 279.855469 C 228.636719 279.96875 228.898438 279.964844 229.125 279.871094 C 229.347656 279.777344 229.535156 279.589844 229.628906 279.34375 L 232.796875 270.640625 C 232.824219 270.570312 232.90625 270.535156 232.972656 270.5625 L 238.011719 272.714844 L 241.773438 274.320312 L 246.898438 284.105469 L 284.953125 317.679688 C 285.664062 318.308594 286.691406 318.429688 287.527344 317.980469 L 315.652344 302.890625 L 316.996094 304.828125 L 335.667969 331.847656 Z M 1306.800781 542.523438 C 1305.953125 545.902344 1304.183594 548.929688 1301.78125 551.351562 C 1300.230469 552.917969 1298.421875 554.234375 1296.40625 555.21875 L 1261.265625 572.386719 L 1255.679688 575.113281 L 1240.761719 582.402344 L 1221.847656 591.644531 C 1220.878906 592.117188 1220.148438 592.96875 1219.832031 594 L 1206.9375 635.777344 C 1206.539062 637.078125 1205.128906 637.78125 1203.847656 637.316406 L 1199.328125 635.6875 L 1199.308594 635.679688 L 1177.886719 627.953125 L 1171.507812 625.652344 L 1157.953125 620.761719 L 1157.414062 620.566406 L 1154.738281 619.597656 L 1113.210938 604.621094 L 1112.953125 604.527344 L 1108.289062 602.847656 C 1107.476562 602.554688 1106.929688 601.777344 1106.929688 600.910156 L 1106.929688 588.96875 C 1106.929688 585.4375 1108.691406 582.136719 1111.621094 580.167969 L 1165.09375 544.273438 L 1170.980469 540.320312 L 1224.0625 504.683594 L 1303.839844 504.683594 C 1308.988281 517 1310.039062 529.609375 1306.800781 542.523438 Z M 1306.800781 542.523438 " fill-opacity="1" fill-rule="nonzero"/><g clip-path="url(#f23e927b89)"><path fill="#000000" d="M 724.597656 653.117188 C 725.425781 692.964844 719.128906 735.035156 706.625 778.019531 L 655.46875 778.019531 C 643.988281 736.402344 638.378906 694.734375 638.664062 653.117188 Z M 677.539062 641.609375 L 724.140625 641.609375 C 724.113281 641.039062 724.085938 640.472656 724.058594 639.902344 C 723.859375 636.027344 723.542969 632.210938 723.144531 628.394531 C 722.71875 624.035156 722.207031 619.679688 721.578125 615.378906 L 640.515625 615.378906 C 640.117188 619.707031 639.773438 624.066406 639.519531 628.394531 C 639.261719 632.238281 639.0625 636.054688 638.917969 639.902344 C 638.890625 640.472656 638.890625 641.039062 638.863281 641.609375 Z M 828.109375 210.519531 C 828.109375 210.515625 828.113281 210.507812 828.113281 210.503906 C 828.875 205.042969 833.269531 201.230469 841.074219 204.472656 L 841.925781 207.757812 L 842 208.03125 L 847.957031 208.03125 L 848.367188 206.472656 L 851.78125 193.492188 C 852.527344 190.652344 855.195312 188.75 858.121094 188.972656 L 890.164062 191.398438 C 890.367188 193.65625 890.488281 195.859375 890.570312 198.039062 L 890.582031 198.035156 L 890.585938 198.035156 C 897.832031 177.914062 879.367188 165.695312 860.878906 166.082031 C 840.179688 166.511719 818.519531 181.796875 828.105469 210.523438 Z M 837.761719 278.210938 C 837.765625 278.21875 837.78125 278.21875 837.785156 278.226562 C 837.851562 278.308594 837.96875 278.328125 838.046875 278.25 L 847.585938 268.230469 C 847.589844 268.226562 847.589844 268.226562 847.59375 268.226562 C 847.894531 267.914062 848.34375 267.796875 848.761719 267.921875 C 848.765625 267.921875 848.773438 267.917969 848.777344 267.921875 L 851.371094 268.730469 L 857.828125 270.742188 L 857.832031 270.742188 L 859.550781 276.414062 C 859.5625 276.457031 859.566406 276.496094 859.578125 276.539062 C 859.96875 277.871094 860.164062 279.253906 860.164062 280.640625 C 860.164062 280.699219 860.175781 280.753906 860.175781 280.8125 L 859.734375 317.652344 L 862.421875 316.621094 C 863.839844 316.078125 865.390625 317.164062 865.285156 318.679688 C 865.15625 320.527344 864.335938 322.878906 861.492188 324.671875 C 860.859375 325.070312 860.261719 325.539062 859.804688 326.128906 L 859.628906 326.359375 L 859.578125 330.523438 L 867.652344 329.109375 C 868.917969 328.859375 870.027344 328.160156 870.832031 327.152344 C 872.160156 325.488281 874.941406 322.898438 880.011719 321.605469 L 874.253906 279.183594 C 874.246094 279.140625 874.25 279.101562 874.242188 279.058594 C 874.109375 278.023438 874.089844 276.972656 874.183594 275.929688 C 874.1875 275.898438 874.183594 275.867188 874.1875 275.835938 L 874.855469 268.851562 L 874.859375 268.851562 L 876.765625 267.96875 L 881.6875 265.691406 C 881.691406 265.6875 881.699219 265.691406 881.703125 265.6875 C 882.117188 265.503906 882.601562 265.570312 882.941406 265.867188 L 893.753906 275.296875 C 893.761719 275.300781 893.769531 275.296875 893.777344 275.300781 C 893.890625 275.375 894.046875 275.304688 894.046875 275.164062 L 894.046875 251.683594 L 879.199219 243.023438 L 878.527344 245.109375 L 872.183594 264.746094 L 857.972656 264.746094 L 839.375 241.964844 L 836.242188 238.128906 L 836.195312 238.160156 L 822.121094 248.015625 L 822.109375 248.023438 L 824.007812 251.679688 Z M 872.636719 351.707031 C 871.441406 352.734375 869.929688 353.304688 868.363281 353.304688 L 859.308594 353.304688 L 859.078125 372.332031 L 859.078125 372.359375 C 859.078125 372.671875 859.191406 372.957031 859.421875 373.15625 L 872.695312 386.316406 C 872.722656 386.34375 872.722656 386.34375 872.75 386.375 C 873.207031 386.773438 873.917969 386.742188 874.347656 386.289062 L 886.621094 373.5 C 886.621094 373.5 886.621094 373.46875 886.652344 373.46875 C 886.820312 373.242188 886.9375 372.957031 886.9375 372.671875 L 886.9375 372.558594 L 882.890625 342.820312 Z M 969.15625 761.949219 L 941.371094 746.257812 L 943.753906 746.257812 C 944.378906 746.257812 944.867188 745.714844 944.800781 745.09375 L 908.363281 413.238281 L 806.703125 413.238281 L 766.722656 746.257812 L 767.488281 746.257812 L 740.632812 762.28125 C 738.003906 763.851562 736.390625 766.6875 736.390625 769.746094 L 736.390625 774.363281 C 736.390625 775.089844 736.980469 775.679688 737.707031 775.679688 L 789.449219 775.679688 C 789.910156 775.679688 790.339844 775.4375 790.578125 775.046875 L 793.484375 770.246094 C 793.722656 769.855469 794.285156 769.851562 794.53125 770.238281 L 797.566406 775.0625 C 797.808594 775.445312 798.230469 775.679688 798.683594 775.679688 L 810.726562 775.679688 C 811.382812 775.679688 811.949219 775.191406 812.042969 774.539062 C 813.4375 764.800781 813.675781 755.308594 811.875 746.257812 L 813.859375 746.257812 C 814.269531 746.257812 814.621094 745.964844 814.691406 745.558594 L 861.75 481.457031 L 893.832031 745.335938 C 893.894531 745.863281 894.34375 746.257812 894.875 746.257812 L 896.984375 746.257812 L 896.984375 774.34375 C 896.984375 775.082031 897.582031 775.679688 898.320312 775.679688 L 910.164062 775.679688 C 910.625 775.679688 911.050781 775.445312 911.292969 775.054688 L 914.382812 770.148438 C 914.625 769.769531 915.175781 769.773438 915.410156 770.152344 L 918.3125 774.886719 C 918.527344 775.367188 919.003906 775.679688 919.53125 775.679688 L 971.128906 775.679688 C 971.867188 775.679688 972.464844 775.082031 972.464844 774.34375 L 972.464844 767.617188 C 972.464844 765.269531 971.199219 763.105469 969.15625 761.949219 Z M 461.925781 745.351562 L 431.878906 757.515625 C 428.746094 758.765625 425.355469 759.195312 422.023438 758.738281 L 408.210938 756.800781 L 408.207031 756.800781 L 397.980469 762.953125 C 396.015625 764.121094 394.820312 766.257812 394.820312 768.539062 L 394.820312 775.144531 C 394.820312 776.339844 395.789062 777.308594 396.984375 777.308594 L 435.949219 777.308594 C 436.75 777.308594 437.515625 776.96875 438.058594 776.371094 L 447.972656 765.574219 C 448.398438 765.121094 449.136719 765.402344 449.136719 766.003906 L 449.136719 775.773438 C 449.136719 776.625 449.792969 777.308594 450.648438 777.308594 L 459.507812 777.308594 C 460.730469 777.308594 461.8125 776.371094 461.984375 775.144531 C 463.378906 764.796875 463.492188 754.84375 461.933594 745.402344 C 461.929688 745.386719 461.929688 745.367188 461.925781 745.351562 Z M 541.625 501.523438 L 541.5625 497.425781 C 541.457031 490.082031 540.414062 482.777344 538.464844 475.691406 L 530.230469 445.832031 L 526.550781 450.585938 L 492.625 494.429688 C 492.484375 494.617188 492.28125 494.734375 492.066406 494.773438 C 491.851562 494.816406 491.625 494.78125 491.421875 494.660156 L 488.445312 492.898438 L 484.503906 507.566406 C 484.195312 508.71875 483.769531 509.832031 483.230469 510.894531 L 478.222656 520.78125 C 477.429688 522.34375 475.828125 523.328125 474.078125 523.328125 L 452.140625 523.328125 C 450.132812 523.328125 448.355469 522.039062 447.726562 520.136719 L 445.316406 512.808594 C 444.445312 510.164062 444.410156 507.3125 445.214844 504.644531 L 448.324219 494.324219 C 448.839844 492.617188 449.683594 491.027344 450.808594 489.648438 L 461.289062 476.824219 L 458.6875 475.28125 C 458.21875 475.003906 458.089844 474.386719 458.410156 473.945312 L 500.066406 416.386719 L 441.890625 416.386719 L 431.976562 478.304688 C 431.179688 483.273438 430.71875 488.289062 430.59375 493.316406 L 424.832031 726.023438 C 424.820312 726.621094 425.300781 727.113281 425.898438 727.113281 L 471.007812 727.113281 C 471.566406 727.113281 472.03125 726.683594 472.070312 726.125 L 486.761719 520.195312 C 486.777344 519.96875 487.113281 519.96875 487.125 520.199219 L 499.558594 726.253906 C 499.585938 726.738281 499.988281 727.113281 500.472656 727.113281 L 543.953125 727.113281 C 544.464844 727.113281 544.878906 726.695312 544.871094 726.183594 L 541.953125 524.46875 Z M 287.167969 583.054688 C 288.632812 591.878906 288.296875 600.910156 286.183594 609.601562 L 254.5625 746.515625 L 254.558594 746.511719 L 271.78125 759.757812 C 273.273438 760.902344 274.144531 762.675781 274.144531 764.554688 L 274.144531 773.730469 C 274.144531 774.523438 273.503906 775.167969 272.710938 775.167969 L 253.996094 775.167969 C 249.308594 775.167969 244.660156 774.257812 240.316406 772.492188 L 230.789062 768.617188 C 230.824219 768.875 230.902344 769.125 230.902344 769.390625 L 230.902344 778.390625 C 230.902344 779.476562 230.019531 780.359375 228.933594 780.359375 L 183.847656 780.359375 C 183.28125 780.359375 182.761719 780.058594 182.472656 779.574219 L 180.128906 775.59375 C 179.804688 775.042969 179.007812 775.042969 178.679688 775.59375 L 176.335938 779.574219 C 176.046875 780.058594 175.527344 780.359375 174.960938 780.359375 L 164.882812 780.359375 C 164.160156 780.359375 163.507812 779.867188 163.316406 779.167969 C 160.757812 769.714844 160.824219 760.261719 163.472656 750.835938 L 158.351562 750.777344 C 157.902344 750.769531 157.550781 750.390625 157.574219 749.941406 L 165.988281 606.015625 C 166.121094 601.957031 166.015625 597.890625 165.667969 593.847656 L 159.6875 524.46875 L 157.710938 501.523438 L 156.617188 488.820312 C 156.289062 485.003906 156.125 481.175781 156.125 477.347656 L 156.125 417.164062 L 259.65625 417.164062 Z M 235.675781 587.113281 L 221.3125 520.351562 C 221.121094 519.476562 219.835938 519.617188 219.835938 520.511719 L 219.835938 592.402344 C 219.835938 597.410156 219.539062 602.414062 218.945312 607.386719 L 203.925781 750.609375 C 203.882812 751.011719 203.539062 751.316406 203.132812 751.3125 L 200.742188 751.285156 L 207.554688 754.433594 C 208.582031 746.617188 211.828125 737.542969 216.03125 731.472656 L 212.351562 730.035156 C 212.042969 729.914062 211.863281 729.589844 211.925781 729.265625 L 236.03125 604.546875 C 237.027344 598.765625 236.90625 592.847656 235.675781 587.113281 Z M 458.6875 225.609375 C 459.3125 223.664062 460.203125 221.367188 461.210938 219.101562 L 485.148438 219.898438 C 487.316406 219.96875 489.3125 221.089844 490.503906 222.898438 L 497.398438 233.371094 C 511.976562 228.152344 517.25 244.855469 502.457031 253.039062 L 506.253906 267.3125 L 506.253906 267.320312 C 515.878906 264.96875 526.515625 260 533.914062 253.636719 C 536.976562 251 537.964844 246.65625 536.585938 242.859375 C 526.789062 215.921875 513.933594 200.839844 497.183594 196.074219 C 484.882812 192.578125 472.230469 195.503906 461.457031 205.507812 C 458.042969 208.675781 456.519531 213.410156 457.332031 217.996094 Z M 185.101562 210.773438 C 186.324219 211.78125 187.363281 213.214844 187.28125 214.792969 C 187.242188 215.574219 186.929688 216.316406 186.816406 217.089844 C 186.5625 218.773438 187.335938 220.574219 188.734375 221.550781 C 190.324219 222.660156 191.796875 222.160156 193.488281 222.109375 C 191.191406 211.675781 199.558594 205.34375 207.03125 211.828125 C 207.03125 211.828125 208.21875 212.085938 208.804688 212.210938 C 211.625 212.796875 214.917969 211.066406 216.109375 208.484375 C 217.074219 206.390625 216.941406 203.851562 218.214844 201.929688 C 219.351562 200.222656 221.574219 199.3125 223.578125 199.738281 C 224.59375 199.953125 225.523438 200.46875 226.527344 200.734375 C 229.101562 201.410156 232.359375 199.722656 232.398438 197.0625 C 232.421875 195.648438 231.605469 194.097656 232.378906 192.917969 C 233.304688 191.5 235.601562 192.09375 236.75 193.335938 C 237.894531 194.578125 238.550781 196.277344 239.933594 197.25 C 241.347656 198.246094 243.402344 198.214844 244.785156 197.179688 C 246.375 195.996094 247.164062 193.664062 249.097656 193.234375 C 250.496094 192.921875 251.949219 193.851562 252.628906 195.113281 C 253.304688 196.371094 253.351562 197.878906 253.207031 199.304688 C 253.128906 200.070312 253.113281 200.832031 253.144531 201.601562 C 253.21875 203.328125 254.5625 204.71875 256.335938 205.433594 C 256.628906 205.550781 256.929688 205.648438 257.242188 205.722656 C 257.253906 205.726562 257.265625 205.726562 257.273438 205.730469 C 257.839844 205.867188 258.414062 205.90625 258.957031 206.125 C 259.441406 206.324219 259.890625 206.613281 260.265625 206.976562 C 260.679688 207.375 261.109375 207.746094 261.484375 208.183594 C 261.757812 208.496094 262.007812 208.835938 262.203125 209.203125 C 263.570312 211.761719 261.808594 214.59375 262.289062 217.320312 C 262.53125 218.679688 263.203125 220.273438 264.332031 221.089844 C 265.378906 216.746094 269.773438 214.839844 271.007812 210.710938 C 271.898438 207.722656 270.128906 204.515625 267.761719 202.488281 C 266.769531 201.640625 265.65625 200.914062 264.859375 199.882812 C 262.8125 197.246094 263.363281 193.527344 263.605469 190.195312 C 263.84375 186.867188 263.222656 182.8125 260.164062 181.480469 C 259.175781 181.050781 258.0625 180.984375 257.054688 180.605469 C 252.921875 179.058594 251.777344 172.957031 247.523438 171.765625 C 244.984375 171.054688 242.34375 172.429688 239.707031 172.476562 C 233.464844 172.585938 229.222656 165.566406 223.070312 164.511719 C 219.144531 163.84375 215.144531 165.816406 212.375 168.679688 C 209.742188 171.402344 207.609375 175.148438 203.902344 175.941406 C 201.695312 176.414062 199.410156 175.683594 197.160156 175.832031 C 193.550781 176.074219 190.25 178.820312 189.355469 182.324219 C 188.605469 185.261719 189.3125 188.765625 187.316406 191.046875 C 186.085938 192.453125 184.152344 192.964844 182.566406 193.949219 C 180.261719 195.382812 178.6875 197.933594 178.441406 200.636719 C 178.191406 203.339844 179.277344 206.136719 181.28125 207.964844 C 182.449219 209.03125 183.882812 209.765625 185.101562 210.773438 Z M 328.550781 391.398438 L 315.660156 383.398438 C 315.171875 383.097656 314.535156 383.25 314.230469 383.730469 C 314.226562 383.738281 314.21875 383.738281 314.214844 383.746094 L 312.628906 386.371094 L 295.558594 414.597656 L 294.074219 417.050781 L 293.203125 418.492188 C 292.90625 418.984375 293.0625 419.621094 293.546875 419.921875 L 306.441406 427.921875 C 306.933594 428.230469 307.582031 428.074219 307.886719 427.574219 L 310.816406 422.726562 L 310.820312 422.71875 L 327.363281 395.359375 L 327.371094 395.347656 L 328.894531 392.828125 C 329.191406 392.339844 329.039062 391.699219 328.550781 391.398438 Z M 536.757812 745.351562 L 506.707031 757.515625 C 503.574219 758.765625 500.1875 759.195312 496.851562 758.738281 L 483.039062 756.800781 L 472.8125 762.953125 C 470.847656 764.121094 469.652344 766.257812 469.652344 768.539062 L 469.652344 775.144531 C 469.652344 776.339844 470.621094 777.308594 471.816406 777.308594 L 510.78125 777.308594 C 511.578125 777.308594 512.347656 776.96875 512.890625 776.371094 L 522.800781 765.574219 C 523.230469 765.121094 523.96875 765.402344 523.96875 766.003906 L 523.96875 775.773438 C 523.96875 776.625 524.625 777.308594 525.480469 777.308594 L 534.335938 777.308594 C 535.5625 777.308594 536.644531 776.371094 536.816406 775.144531 C 538.007812 766.28125 538.191406 757.726562 537.261719 749.515625 C 537.101562 748.125 536.984375 746.722656 536.757812 745.351562 Z M 237.226562 260.699219 L 195.332031 242.121094 L 195.332031 242.125 L 180.097656 257.632812 L 180.09375 257.636719 L 185.589844 260.164062 L 228.394531 279.855469 C 228.636719 279.96875 228.898438 279.964844 229.125 279.871094 C 229.347656 279.777344 229.535156 279.589844 229.628906 279.34375 L 232.796875 270.640625 C 232.824219 270.570312 232.90625 270.535156 232.972656 270.5625 L 232.976562 270.5625 L 238.011719 272.714844 L 241.773438 274.320312 L 237.234375 260.703125 Z M 346.871094 317.738281 L 331.761719 295.878906 L 329.25 292.242188 C 328.6875 291.425781 327.558594 291.242188 326.765625 291.835938 L 315.757812 300.085938 C 315.003906 300.648438 314.832031 301.703125 315.367188 302.472656 L 315.652344 302.890625 L 316.996094 304.828125 L 335.667969 331.847656 L 336.785156 333.46875 L 337.664062 334.734375 C 338.226562 335.550781 339.351562 335.734375 340.144531 335.140625 L 351.15625 326.894531 C 351.90625 326.332031 352.078125 325.277344 351.542969 324.503906 Z M 506.882812 269.683594 L 466.859375 283.886719 L 466.851562 283.890625 L 466.246094 284.105469 L 466.238281 284.117188 L 466.226562 284.132812 L 457.816406 297.539062 L 462.242188 294.425781 L 466.246094 291.613281 L 471.058594 300.417969 L 512.195312 283.683594 L 516.113281 282.089844 Z M 1191.710938 723.199219 L 1185.742188 727.640625 L 1179.886719 731.992188 L 1164.488281 743.445312 L 1161.226562 743.414062 L 1144.453125 743.261719 C 1144.4375 743.058594 1144.414062 742.851562 1144.394531 742.648438 C 1144.289062 741.367188 1144.179688 740.085938 1144.035156 738.792969 C 1144.035156 738.792969 1144.035156 738.789062 1144.035156 738.789062 C 1143.84375 737.082031 1143.636719 735.371094 1143.386719 733.644531 L 1143.375 733.652344 L 1132.238281 741.820312 L 1115.789062 753.894531 L 1084.449219 753.605469 L 1084.425781 753.605469 L 1070.550781 760.125 C 1067.261719 761.671875 1065.164062 764.980469 1065.164062 768.613281 L 1065.164062 776.171875 C 1065.164062 777.417969 1066.171875 778.429688 1067.421875 778.429688 L 1114.078125 778.429688 C 1114.703125 778.429688 1115.292969 778.15625 1115.695312 777.675781 L 1126.121094 765.296875 C 1126.582031 764.75 1127.472656 765.074219 1127.472656 765.789062 L 1127.472656 777.730469 C 1127.472656 778.117188 1127.785156 778.429688 1128.175781 778.429688 L 1142.355469 778.429688 C 1142.699219 778.429688 1143 778.179688 1143.054688 777.839844 C 1143.605469 774.601562 1144.027344 771.3125 1144.339844 767.984375 L 1162.800781 767.984375 C 1163.410156 767.984375 1163.984375 767.714844 1164.375 767.25 L 1174.90625 754.746094 C 1175.335938 754.234375 1176.167969 754.539062 1176.167969 755.207031 L 1176.167969 765.925781 C 1176.167969 767.0625 1177.089844 767.984375 1178.226562 767.984375 L 1189.890625 767.984375 C 1190.90625 767.984375 1191.78125 767.25 1191.941406 766.25 C 1194.117188 752.695312 1193.921875 738.390625 1191.714844 723.195312 Z M 1233.046875 330.785156 C 1233.78125 326.53125 1234.953125 322.359375 1236.488281 318.257812 C 1244.15625 323.910156 1252.585938 328.078125 1262.007812 330.332031 C 1263.804688 330.761719 1265.347656 331.914062 1266.171875 333.570312 L 1269.066406 339.394531 C 1269.347656 339.964844 1270.148438 339.996094 1270.476562 339.449219 L 1274.304688 333.070312 C 1285.859375 330.257812 1291.46875 342.011719 1280.589844 352.558594 L 1282.371094 358.292969 C 1282.371094 358.292969 1282.371094 358.292969 1282.375 358.289062 C 1295.175781 347.351562 1299.207031 333.648438 1293.503906 320.652344 C 1297.121094 319.992188 1300.503906 318.28125 1303.167969 315.5 C 1310.320312 308.027344 1309.570312 295.703125 1301.492188 287.96875 C 1293.417969 280.234375 1281.070312 280.023438 1273.917969 287.496094 C 1270.757812 290.792969 1269.148438 295.035156 1269.019531 299.414062 C 1249.652344 294.214844 1225.089844 302.421875 1233.039062 330.753906 C 1233.039062 330.761719 1233.042969 330.773438 1233.046875 330.785156 Z M 1307.386719 407.117188 L 1293.605469 377.628906 C 1293.125 376.601562 1291.976562 376.070312 1290.882812 376.367188 L 1288.222656 377.089844 L 1288.210938 377.09375 L 1244.042969 389.113281 L 1243.703125 389.203125 C 1243.648438 389.21875 1243.601562 389.25 1243.546875 389.265625 C 1241.457031 389.882812 1239.703125 391.308594 1238.695312 393.246094 L 1224.648438 420.339844 C 1221.820312 425.796875 1220.488281 431.902344 1220.789062 438.039062 L 1221.214844 446.679688 L 1211.648438 453.925781 C 1210.449219 454.835938 1208.949219 455.269531 1207.449219 455.132812 L 1178.410156 452.550781 C 1178.058594 452.519531 1177.742188 452.746094 1177.660156 453.089844 L 1177.359375 454.355469 L 1177.359375 454.359375 L 1172.226562 475.960938 L 1169.75 486.378906 L 1169.75 486.390625 L 1168.976562 489.644531 C 1168.878906 490.046875 1169.152344 490.445312 1169.558594 490.503906 L 1177.730469 491.6875 L 1206.238281 495.808594 C 1209.46875 496.277344 1212.761719 495.625 1215.570312 493.957031 L 1223.3125 489.367188 L 1224.0625 504.683594 L 1303.839844 504.683594 L 1310.050781 421.652344 C 1310.421875 416.660156 1309.503906 411.65625 1307.386719 407.117188 Z M 1149.910156 476.183594 L 1149.480469 475.960938 L 1149.335938 475.886719 C 1147.832031 475.113281 1146.257812 474.496094 1144.652344 473.980469 C 1144.320312 473.871094 1144.003906 473.742188 1143.671875 473.644531 L 1132.441406 470.4375 C 1131.328125 470.117188 1130.164062 470.054688 1129.039062 470.261719 C 1128.664062 470.332031 1128.292969 470.429688 1127.929688 470.558594 C 1127.554688 470.691406 1127.121094 470.832031 1126.660156 470.976562 C 1126.214844 471.117188 1125.730469 471.257812 1125.210938 471.398438 C 1124.839844 471.5 1124.457031 471.597656 1124.050781 471.691406 C 1122.984375 471.945312 1121.8125 472.175781 1120.539062 472.351562 C 1118.851562 472.582031 1117.011719 472.71875 1115.066406 472.671875 C 1111.441406 472.589844 1107.472656 471.871094 1103.535156 470.019531 C 1103.445312 469.980469 1103.355469 469.949219 1103.265625 469.90625 C 1102.59375 469.582031 1101.925781 469.222656 1101.257812 468.828125 C 1100.980469 468.664062 1100.691406 468.519531 1100.394531 468.398438 C 1100.242188 468.335938 1100.082031 468.292969 1099.925781 468.242188 C 1099.730469 468.179688 1099.535156 468.117188 1099.332031 468.074219 C 1098.761719 467.949219 1098.171875 467.902344 1097.578125 467.964844 L 1090.429688 468.75 C 1089.699219 468.828125 1088.976562 468.703125 1088.332031 468.402344 C 1087.6875 468.105469 1087.125 467.632812 1086.714844 467.023438 L 1084.234375 463.339844 C 1083.9375 462.902344 1083.839844 462.414062 1083.828125 461.929688 L 1062.15625 461.929688 C 1061.441406 461.929688 1060.800781 461.480469 1060.554688 460.808594 L 1028.808594 373.929688 C 1028.5625 373.257812 1027.925781 372.8125 1027.207031 372.8125 L 1014.613281 372.8125 C 1013.449219 372.8125 1012.625 373.953125 1012.996094 375.058594 L 1046.585938 475.027344 C 1046.726562 475.441406 1047.023438 475.757812 1047.386719 475.960938 C 1047.632812 476.097656 1047.90625 476.1875 1048.203125 476.1875 L 1149.925781 476.1875 Z M 1149.910156 476.183594 " fill-opacity="1" fill-rule="nonzero"/></g></svg>