<svg xmlns="http://www.w3.org/2000/svg" xmlns:xlink="http://www.w3.org/1999/xlink" width="1920" zoomAndPan="magnify" viewBox="0 0 1440 809.999993" height="1080" preserveAspectRatio="xMidYMid meet" version="1.0"><defs><clipPath id="3aa3c2fb5b"><path d="M 81 59 L 1359 59 L 1359 781.570312 L 81 781.570312 Z M 81 59 " clip-rule="nonzero"/></clipPath></defs><rect x="-144" width="1728" fill="#ffffff" y="-80.999999" height="971.999992" fill-opacity="1"/><rect x="-144" width="1728" fill="#ffffff" y="-80.999999" height="971.999992" fill-opacity="1"/><path fill="#be412f" d="M 1350.230469 402.4375 L 1342.03125 402.332031 C 1338.246094 402.332031 1336.5 404.566406 1335.855469 408.296875 L 1313.484375 549.914062 L 1299.761719 548.792969 C 1301.722656 545.429688 1304.160156 538.429688 1304.804688 534.507812 C 1307.214844 519.394531 1303.328125 504.691406 1298.058594 487.476562 C 1302.207031 461.882812 1304.707031 436.570312 1305.773438 410.078125 C 1306.167969 400.6875 1305.917969 389.230469 1301.460938 381.128906 C 1306.421875 377.933594 1310.96875 375.75 1314.667969 369.304688 C 1316.574219 365.96875 1317.835938 362.265625 1318.230469 358.453125 C 1319.011719 350.886719 1318.746094 349.335938 1312.328125 344.960938 C 1309.328125 342.914062 1306.546875 338.394531 1306.519531 334.75 C 1306.433594 325.832031 1301.175781 321.34375 1293.722656 318.34375 C 1292.011719 317.671875 1290.609375 316.496094 1289.488281 315.066406 C 1282.34375 285.40625 1254.351562 287.820312 1254.351562 287.820312 L 1254.4375 287.933594 C 1250.007812 287.652344 1245.554688 288.074219 1241.238281 289.363281 C 1237.003906 290.625 1236.351562 293.070312 1232.761719 295.652344 C 1226.652344 300.023438 1222.753906 305.289062 1229.957031 312.382812 C 1229.761719 313.589844 1229.566406 314.792969 1229.371094 316.054688 C 1229.0625 318.355469 1228.359375 320.597656 1227.296875 322.644531 C 1225.390625 326.316406 1223.820312 328.304688 1222.839844 331.246094 C 1221.773438 334.386719 1223.566406 337.777344 1226.761719 338.648438 C 1227.433594 338.84375 1228.136719 338.984375 1228.863281 339.125 C 1229.171875 339.179688 1229.453125 339.40625 1229.507812 339.710938 C 1230.320312 343.355469 1229.988281 346.347656 1231.667969 349.515625 C 1233.097656 352.234375 1236.542969 354.21875 1239.597656 354.164062 L 1240.417969 365.917969 C 1221.414062 373.125 1199.546875 390.355469 1185.675781 404.570312 C 1179.3125 411.101562 1170.316406 414.4375 1161.261719 413.289062 C 1147.472656 411.550781 1133.617188 407.65625 1116.210938 410.601562 C 1115.0625 410.796875 1114.21875 411.835938 1114.277344 413.011719 L 1114.332031 413.964844 L 1105.5 414.800781 C 1104.15625 414.96875 1102.78125 414.914062 1101.464844 414.605469 L 1083.863281 410.859375 C 1081.902344 410.578125 1080.890625 409.0625 1079.042969 409.648438 L 1068.082031 405.5 C 1065.253906 404.40625 1062.167969 404.378906 1059.28125 405.25 L 1057.105469 394.660156 L 1101.640625 394.925781 C 1102.875 394.925781 1103.855469 393.914062 1103.855469 392.683594 L 1101.890625 302.195312 C 1101.890625 300.960938 1100.910156 299.953125 1099.675781 299.953125 L 992.617188 300.636719 C 991.386719 300.636719 990.402344 301.644531 990.402344 302.878906 L 991.222656 376.78125 L 978.160156 384.097656 C 975.777344 385.304688 973.03125 385.445312 970.535156 384.519531 L 926.765625 368.9375 L 926.261719 356.050781 L 925.972656 350.726562 L 925.621094 344.148438 L 925.953125 344.136719 L 926.066406 344.136719 C 926.441406 344.121094 926.804688 344.070312 927.171875 344.015625 C 930.449219 343.515625 933.285156 341.339844 934.488281 338.195312 C 935.613281 335.242188 936.339844 332.109375 936.792969 329.011719 C 936.824219 328.804688 936.882812 328.597656 936.910156 328.386719 C 936.980469 327.886719 937.335938 327.484375 937.8125 327.320312 C 940.90625 326.269531 942.722656 324.734375 943.554688 322.910156 C 944.421875 321.007812 944.195312 318.78125 943.21875 316.445312 C 942.136719 313.863281 940.140625 311.144531 937.625 308.578125 C 937.40625 308.351562 937.230469 308.089844 937.078125 307.816406 C 936.972656 307.613281 936.871094 307.410156 936.800781 307.1875 C 936.699219 306.871094 936.59375 306.582031 936.492188 306.269531 C 936.199219 305.375 935.910156 304.484375 935.605469 303.625 C 935.605469 303.621094 935.601562 303.621094 935.601562 303.617188 C 937.894531 300.171875 936.6875 297.21875 935.988281 293.496094 C 935.0625 288.449219 931.753906 284.101562 927.382812 281.441406 C 921.972656 278.160156 919.671875 277.46875 913.757812 276.738281 C 907.535156 275.953125 901.203125 277.019531 895.597656 279.851562 C 893.382812 280.972656 891.335938 282.234375 889.457031 283.609375 C 881.496094 289.496094 877.554688 296.871094 876.65625 306.742188 C 875.453125 319.800781 879.59375 329.582031 888.226562 336.984375 L 888.222656 336.984375 L 885.175781 342.902344 C 878 345.003906 875.191406 350.816406 872.386719 356.703125 L 866.503906 366.429688 C 861.402344 374.953125 861.34375 383.847656 861.597656 393.773438 L 863.003906 497.117188 L 862.558594 497.117188 C 854.289062 511.722656 852.574219 530.425781 856.527344 547.46875 L 850.535156 547.738281 L 825.339844 409.269531 C 824.640625 405.089844 821.023438 402.035156 816.792969 402.035156 L 814.527344 402.148438 C 809.203125 402.148438 805.113281 406.941406 805.980469 412.210938 L 833.597656 564.976562 C 834.101562 568.058594 836.734375 570.300781 839.875 570.300781 L 891.769531 571.660156 L 890.386719 753.714844 L 884.613281 753.714844 C 874.664062 753.714844 867.003906 758.972656 867.003906 768.894531 L 933.023438 768.105469 C 933.023438 763.144531 931.253906 761.613281 928 758.332031 C 924.75 755.082031 921.078125 754.109375 916.117188 754.109375 L 910.34375 754.109375 L 908.101562 571.300781 L 964.125 572.726562 C 964.992188 572.726562 965.898438 572.496094 966.515625 572.046875 L 958.078125 724.539062 C 958.046875 724.820312 958.273438 725.042969 958.523438 725.070312 L 961.804688 725.324219 C 959.730469 734.125 959.835938 742.402344 961.375 750.980469 C 961.714844 752.71875 963.253906 753.949219 965.046875 753.949219 L 973.554688 753.066406 L 973.089844 773.25 L 985.847656 773.25 L 987.125 753.648438 L 1017.285156 753.449219 C 1017.0625 758.71875 1017.558594 764.566406 1018.59375 769.753906 C 1018.792969 770.734375 1019.660156 771.4375 1020.640625 771.4375 L 1032.285156 770.859375 C 1033.097656 770.859375 1033.855469 770.382812 1034.191406 769.652344 L 1038.390625 762.03125 C 1038.53125 761.722656 1038.953125 761.722656 1039.121094 762.003906 L 1043.75 768.949219 C 1044 769.394531 1044.449219 769.675781 1044.953125 769.675781 L 1090.261719 770.960938 C 1091.1875 770.960938 1091.945312 770.203125 1091.945312 769.25 L 1091.421875 763.515625 C 1091.421875 759.898438 1089.40625 756.5625 1086.210938 754.882812 L 1052.203125 738.152344 L 1055.320312 735.839844 C 1055.851562 735.78125 1056.246094 735.277344 1056.1875 734.746094 L 1039.925781 570.957031 C 1039.5625 566.78125 1038.691406 562.660156 1037.375 558.679688 L 1035.328125 552.484375 C 1033.058594 545.589844 1028.042969 539.898438 1021.484375 536.785156 L 998.679688 525.105469 L 1000.171875 503.40625 L 1150.050781 502.847656 L 1149.300781 522.378906 L 1142.125 532.265625 C 1140.890625 533.863281 1141.117188 536.132812 1142.65625 537.449219 L 1143.835938 538.460938 C 1140.695312 542.972656 1137.21875 549.484375 1134.976562 554.585938 L 1114.554688 597.5625 C 1112.5625 602.132812 1114.1875 607.515625 1118.449219 610.09375 C 1124.417969 613.738281 1131.921875 615.824219 1138.367188 618.488281 L 1145.871094 713.421875 C 1146.265625 717.628906 1144.359375 721.75 1140.882812 724.160156 L 1120.109375 738.726562 L 1111.140625 744.949219 C 1109.289062 746.238281 1108.167969 748.367188 1108.167969 750.640625 L 1108.75 754.027344 C 1108.75 755.121094 1109.648438 756.046875 1110.769531 756.046875 L 1147.597656 754.539062 C 1148.296875 754.539062 1148.941406 754.203125 1149.363281 753.667969 L 1160.832031 743.035156 L 1162.742188 773.621094 L 1175.820312 773.382812 L 1175.710938 770.15625 L 1204.828125 770.078125 C 1206.675781 770.078125 1208.414062 769.292969 1209.648438 767.921875 L 1226.527344 750.738281 L 1226.363281 770.160156 C 1226.363281 770.609375 1226.726562 771 1227.203125 771 L 1237.617188 770.582031 C 1238.289062 770.582031 1239.152344 769.070312 1239.292969 768.398438 C 1239.320312 768.257812 1239.347656 768.089844 1239.375 767.921875 L 1294.429688 768.867188 C 1294.429688 758.945312 1287.914062 754.660156 1277.960938 754.660156 L 1272.1875 754.660156 L 1268.488281 569.339844 L 1321.253906 570.707031 C 1324.367188 570.707031 1327.027344 568.464844 1327.535156 565.382812 L 1354.917969 410.425781 C 1355.671875 405.6875 1355.023438 402.4375 1350.230469 402.4375 Z M 1006.019531 698.535156 L 1011.894531 728.785156 L 997.925781 723.84375 Z M 969.753906 467.816406 L 970.558594 485.613281 L 981.921875 486.417969 L 980.316406 518.214844 L 940.257812 498.929688 L 943.722656 444.554688 L 950.929688 449.542969 C 954.492188 451.726562 957.855469 452.691406 962.003906 453.277344 L 970.074219 454.457031 C 974.109375 455.046875 978.203125 454.820312 982.152344 453.8125 L 1004.140625 451.617188 L 1005.679688 467.242188 Z M 1005.054688 452.199219 L 1004.539062 451.617188 L 1022.464844 446.585938 L 1023.054688 449.488281 C 1023.164062 449.933594 1023.640625 450.214844 1024.089844 450.101562 L 1034.75 447.109375 L 1035.046875 452.503906 Z M 1034.199219 411.921875 L 1031.421875 412.199219 L 1029.140625 409.355469 C 1029.03125 408.9375 1028.609375 408.65625 1028.1875 408.742188 L 1015.359375 410.636719 C 1014.882812 410.722656 1014.605469 411.199219 1014.714844 411.648438 L 1015.472656 414.929688 L 988.398438 417.609375 L 1022.480469 394.25 L 1036.40625 395.375 Z M 1203.761719 737.546875 L 1182.691406 754.265625 L 1174.964844 757 L 1173.550781 707.074219 C 1175.484375 694.992188 1177.941406 675.429688 1178.867188 660.597656 L 1206.59375 726.867188 C 1208.078125 730.648438 1206.929688 734.996094 1203.761719 737.546875 Z M 1189.460938 500.535156 C 1189.097656 500.84375 1188.871094 501.234375 1188.761719 501.683594 L 1176.941406 506.445312 L 1169.289062 508.742188 L 1167.007812 485.886719 L 1177.625 485.203125 L 1176.941406 466.871094 L 1088.132812 466.988281 L 1088.273438 452.484375 L 1058.785156 452.242188 L 1058.945312 439.832031 C 1059.027344 439.890625 1059.113281 439.972656 1059.25 440 L 1081.5 445.996094 C 1085.3125 447.144531 1089.375 447.230469 1093.242188 446.25 L 1115.644531 438.257812 C 1115.816406 439.070312 1116.375 439.746094 1117.1875 439.996094 C 1138.683594 446.921875 1160.433594 453.214844 1182.546875 450.71875 L 1188.125 449.316406 C 1193.621094 447.945312 1198.777344 445.394531 1203.175781 441.832031 L 1211.082031 435.441406 L 1216.574219 478.527344 C 1206.765625 484.667969 1199.101562 492.964844 1189.460938 500.535156 Z M 1239.105469 754.660156 C 1238.601562 746.335938 1236.789062 737.707031 1232.613281 729.632812 C 1228.941406 695.851562 1220.875 658.546875 1212.664062 628.71875 C 1214.429688 628.523438 1217.949219 627.746094 1219.742188 627.523438 C 1224.171875 626.960938 1227.703125 623.542969 1228.402344 619.140625 L 1233.414062 587.507812 C 1233.808594 585.070312 1235.378906 582.96875 1237.589844 581.847656 L 1251.152344 575.960938 L 1251.820312 754.660156 Z M 350.011719 201.445312 C 350.265625 204.359375 349.421875 207.136719 347.824219 209.460938 C 347.039062 204.640625 345.808594 199.820312 343.929688 194.941406 C 335.914062 205.398438 323.46875 212.65625 308.335938 218.011719 C 299.085938 215.65625 294.179688 224.769531 299.8125 232.335938 C 299.980469 232.535156 300.179688 232.757812 300.375 232.980469 C 301.804688 234.71875 303.851562 236.316406 306.511719 237.691406 L 298.777344 257.875 L 282.828125 262.640625 C 276.941406 264.378906 271.367188 266.957031 266.152344 270.15625 C 265.226562 270.714844 264.332031 271.277344 263.433594 271.863281 C 266.542969 251.847656 278.121094 238.476562 291.546875 233.011719 L 291.574219 233.011719 C 273.355469 207.949219 290.984375 176.242188 322.292969 179.15625 C 323.664062 179.296875 325.066406 179.296875 326.441406 179.269531 C 338.882812 179.128906 348.972656 189.417969 350.011719 201.445312 Z M 622.386719 315.988281 C 622.300781 314.617188 622.132812 313.296875 621.964844 311.953125 C 620.589844 301.441406 616.835938 291.320312 610.867188 282.378906 L 610.023438 281.144531 L 597.046875 261.6875 L 593.011719 248.539062 L 593.683594 248.148438 C 597.078125 246.914062 599.375 244.28125 600.578125 241.253906 C 601.421875 239.121094 601.730469 236.796875 601.503906 234.691406 C 600.945312 229.226562 596.851562 225.132812 589.367188 229.058594 C 576.699219 228.132812 561.648438 219.414062 552.0625 211.875 C 551.140625 215.238281 550.382812 218.574219 549.820312 221.851562 L 549.765625 221.824219 C 549.316406 221.375 548.867188 220.898438 548.476562 220.394531 C 544.1875 215.320312 544.355469 207.835938 548.699219 202.789062 C 555.960938 194.269531 569.132812 188.519531 580.457031 193.933594 C 582.25 194.800781 584.183594 195.304688 586.171875 195.5 C 604 197.210938 613.976562 218.433594 605.960938 234.105469 L 606.015625 234.074219 C 617.003906 236.457031 627.234375 249.464844 620.03125 265.082031 C 642.003906 265.753906 651.785156 299.589844 622.386719 315.988281 Z M 622.386719 315.988281 " fill-opacity="1" fill-rule="nonzero"/><path fill="#ffad9c" d="M 615.796875 606.472656 L 624.347656 485.199219 C 625.046875 472.050781 623.785156 458.902344 620.648438 446.121094 L 606.660156 402.863281 L 619.414062 325.746094 C 619.863281 321.597656 619.917969 317.449219 619.609375 313.355469 C 620.421875 312.90625 621.207031 312.429688 621.964844 311.953125 C 620.589844 301.441406 616.835938 291.320312 610.867188 282.378906 L 610.023438 281.144531 L 597.046875 261.6875 L 593.011719 248.539062 L 593.683594 248.148438 C 597.078125 246.914062 599.375 244.28125 600.578125 241.253906 C 601.421875 239.121094 601.730469 236.796875 601.503906 234.691406 C 600.945312 229.226562 596.851562 225.132812 589.367188 229.058594 C 576.699219 228.132812 561.648438 219.414062 552.0625 211.875 C 551.140625 215.238281 550.382812 218.574219 549.820312 221.851562 C 549.710938 222.554688 549.542969 223.253906 549.429688 223.957031 C 549.261719 225.019531 549.007812 226.03125 548.617188 227.039062 C 548.222656 228.078125 547.691406 229.058594 547.046875 229.953125 C 542.507812 236.320312 540.65625 241.671875 547.328125 244.167969 C 547.746094 244.308594 548.167969 244.449219 548.617188 244.589844 C 548.839844 244.644531 548.980469 244.8125 549.09375 244.980469 C 549.148438 245.09375 549.234375 245.175781 549.234375 245.289062 C 549.652344 248.289062 550.269531 251.230469 551.082031 254.148438 C 551.839844 256.894531 554.363281 258.828125 557.222656 258.828125 L 560.136719 258.828125 L 558.621094 272.3125 C 558.0625 272.59375 558.175781 273.238281 557.894531 273.800781 L 545.335938 310.1875 C 541.945312 317.195312 537.855469 324.457031 538.582031 332.191406 L 538.890625 335.558594 L 526.472656 348.734375 C 524.90625 350.359375 522.664062 351.144531 520.390625 350.863281 L 464.644531 341.921875 C 464.363281 341.863281 464.085938 342.058594 464.054688 342.367188 L 463.214844 342.902344 L 456.207031 342.367188 L 441.523438 332.191406 L 440.066406 307.523438 C 440.066406 305.785156 438.664062 304.382812 436.925781 304.382812 L 408.335938 302.953125 C 408.335938 302.617188 408.308594 302.28125 408.308594 301.945312 C 408.113281 294.601562 405.703125 288.992188 402.085938 285.207031 C 398.472656 281.453125 393.679688 279.519531 388.660156 279.519531 C 383.699219 279.519531 377.898438 281.425781 374.058594 285.125 L 373.273438 284.285156 C 366.914062 276.152344 359.710938 270.265625 350.601562 265.417969 L 337.792969 256.894531 L 336.808594 250.785156 L 335.660156 243.773438 L 341.351562 243.128906 C 344.070312 242.820312 346.253906 240.773438 346.84375 238.085938 C 347.40625 235.53125 347.851562 233.011719 348.160156 230.488281 C 348.804688 225.273438 348.917969 220.113281 348.496094 214.957031 C 348.328125 213.132812 348.132812 211.285156 347.824219 209.460938 C 347.039062 204.640625 345.808594 199.820312 343.929688 194.941406 C 335.914062 205.398438 323.46875 212.65625 308.335938 218.011719 C 299.085938 215.65625 294.179688 224.769531 299.8125 232.335938 C 299.980469 232.535156 300.179688 232.757812 300.375 232.980469 C 301.804688 234.71875 303.851562 236.316406 306.511719 237.691406 L 298.777344 257.875 L 282.828125 262.640625 C 276.941406 264.378906 271.367188 266.957031 266.152344 270.15625 C 265.957031 270.9375 265.816406 271.753906 265.703125 272.566406 C 261.613281 275.339844 257.742188 279.265625 254.324219 282.882812 L 241.515625 293.84375 C 240.449219 294.964844 240.421875 296.730469 241.460938 297.851562 C 242.160156 298.609375 242.890625 299.363281 243.644531 300.121094 C 244.011719 300.488281 244.375 300.851562 244.738281 301.1875 C 246.589844 303.007812 246.757812 305.082031 248.269531 307.410156 L 236.246094 356.664062 C 235.628906 359.1875 235.546875 361.796875 235.9375 364.320312 C 236.191406 365.804688 236.609375 367.261719 237.199219 368.664062 C 237.621094 369.699219 238.125 370.738281 238.742188 371.691406 L 240.589844 374.578125 L 241.570312 376.09375 C 244.964844 381.390625 250.707031 384.699219 257.015625 384.980469 L 272.542969 385.652344 L 273.945312 399.894531 L 274.195312 402.527344 L 220.214844 403.507812 L 220.242188 399.894531 L 220.691406 360.113281 C 220.691406 359.328125 220.046875 358.683594 219.234375 358.683594 L 202.417969 358.234375 L 203.203125 339.789062 L 220.269531 340.769531 C 221.308594 340.769531 222.148438 339.929688 222.148438 338.890625 L 220.972656 317.613281 C 220.972656 316.578125 220.128906 315.738281 219.09375 315.738281 L 178.199219 315.847656 C 177.164062 315.847656 176.324219 316.691406 176.324219 317.726562 L 177.136719 338.695312 C 177.136719 339.734375 177.976562 340.574219 179.015625 340.574219 L 196.867188 340.183594 L 196.167969 358.347656 L 125.144531 359.496094 C 124.332031 359.496094 123.6875 360.140625 123.6875 360.925781 L 124.835938 399.894531 L 124.863281 400.929688 L 92.210938 402.585938 L 92.351562 450.96875 L 109.785156 452.902344 L 84.027344 778.710938 L 95.714844 778.847656 L 131.339844 451.699219 L 264.5 451.445312 C 258.109375 485.871094 252.222656 529.351562 249.953125 562.207031 C 249.921875 562.992188 250.539062 563.636719 251.324219 563.636719 L 253.566406 566.1875 L 246.53125 613.84375 C 245.886719 618.160156 245.410156 622.535156 245.074219 626.90625 L 241.460938 674.984375 L 237.675781 725.222656 C 237.199219 731.558594 234.171875 737.417969 229.324219 741.480469 L 217.777344 751.152344 L 217.777344 751.179688 L 206.058594 763.039062 C 204.546875 764.300781 203.675781 766.148438 203.675781 768.113281 L 203.789062 772.933594 C 203.789062 773.859375 204.546875 774.617188 205.472656 774.617188 L 232.40625 773.578125 C 234.394531 773.578125 236.359375 772.851562 237.84375 771.503906 L 258.023438 755.804688 C 258.191406 755.664062 258.472656 755.777344 258.472656 756.003906 L 258.835938 764.582031 C 258.835938 765 259.171875 765.367188 259.621094 765.367188 L 265.5625 764.441406 C 265.957031 764.441406 266.292969 764.132812 266.347656 763.738281 C 267.609375 753.113281 268.871094 744.566406 267.46875 734.527344 L 284.257812 633.1875 C 284.621094 630.859375 285.125 628.589844 285.714844 626.320312 L 301.46875 566.636719 L 301.578125 566.1875 L 318.117188 566.1875 L 324.421875 606.5 C 324.898438 609.613281 325.039062 612.78125 324.871094 615.917969 C 323.328125 646.28125 325.765625 683.761719 333.167969 735.398438 C 330.753906 749.132812 332.074219 759.5625 334.511719 770.804688 C 334.625 771.394531 335.183594 771.8125 335.773438 771.8125 L 342.304688 772.65625 C 343.003906 772.65625 343.59375 772.066406 343.59375 771.363281 L 345.132812 758.722656 L 355.140625 771.363281 C 355.617188 772.007812 356.375 772.402344 357.15625 772.402344 L 395.414062 772.851562 C 396.789062 772.851562 397.910156 771.730469 397.910156 770.355469 L 398.300781 765.140625 C 398.300781 765.113281 398.300781 765.085938 398.300781 765.085938 C 398.300781 765.085938 391.914062 756.28125 391.660156 756.113281 C 384.316406 751.011719 373.386719 743.613281 366.828125 739.15625 C 363.378906 736.800781 361.332031 732.875 361.417969 728.667969 L 364.5 566.1875 L 364.359375 565.570312 C 365.0625 565.570312 365.652344 565.066406 365.707031 564.367188 C 368.929688 532.800781 368.675781 487.273438 366.714844 451.503906 L 445.585938 451.390625 L 479.667969 766.039062 C 479.078125 766.570312 478.433594 767.160156 477.875 767.804688 C 477.285156 768.503906 476.835938 769.261719 476.835938 770.160156 L 476.640625 773.300781 C 476.640625 774.167969 476.753906 774.699219 477.621094 774.699219 L 479.386719 774.644531 L 480.03125 780.113281 L 494.269531 778.960938 L 495.308594 773.214844 L 513.636719 773.550781 C 514.785156 773.550781 515.878906 773.074219 516.664062 772.234375 L 532.5 758.917969 C 532.582031 758.832031 532.722656 758.890625 532.722656 759.03125 L 533.480469 772.992188 C 533.507812 773.410156 533.84375 773.746094 534.265625 773.746094 L 541.609375 774.085938 C 541.832031 774.085938 542.027344 774 542.167969 773.859375 C 542.308594 773.71875 542.394531 773.523438 542.394531 773.300781 C 543.121094 761.890625 544.578125 751.742188 543.796875 740.109375 L 544.382812 726.316406 L 549.847656 724.828125 C 550.296875 724.886719 550.691406 724.550781 550.71875 724.101562 L 570.980469 576.785156 L 583.648438 727.042969 C 583.679688 727.519531 584.097656 727.886719 584.574219 727.855469 L 588.78125 729.34375 L 588.414062 733.210938 L 588.304688 734.445312 C 588.191406 735.652344 587.964844 736.800781 587.628906 737.921875 C 586.789062 740.808594 585.277344 743.445312 583.175781 745.601562 C 582.417969 746.386719 581.546875 747.144531 580.625 747.816406 L 579.25 748.796875 L 575.578125 751.40625 L 557.554688 766.121094 C 555.902344 767.300781 554.921875 769.207031 554.921875 771.226562 L 556.015625 772.992188 C 556.015625 773.46875 556.40625 773.859375 556.882812 773.859375 L 593.09375 773.101562 C 593.320312 773.101562 593.542969 772.992188 593.710938 772.824219 L 609.492188 757.769531 L 611.003906 773.578125 C 611.003906 773.886719 611.257812 774.140625 611.566406 774.140625 L 619.160156 773.214844 C 619.191406 773.214844 619.191406 773.214844 619.21875 773.214844 C 619.527344 773.214844 619.777344 772.992188 619.804688 772.683594 C 620.984375 760.683594 622.609375 751.292969 621.207031 740.109375 L 621.207031 727.15625 L 627.066406 722.53125 C 627.542969 722.503906 627.90625 722.054688 627.878906 721.578125 L 615.855469 609.921875 C 615.769531 608.769531 615.742188 607.621094 615.796875 606.472656 Z M 275.710938 354.957031 L 267.972656 353.21875 L 274.027344 331.996094 L 281.820312 343.460938 Z M 388.128906 302.925781 L 387.261719 301.441406 L 377.058594 288.683594 C 379.917969 285.714844 384.792969 282.9375 388.464844 282.9375 C 395.445312 282.9375 404.832031 290.394531 405.507812 301.945312 C 405.535156 302.363281 405.5625 302.785156 405.5625 303.207031 Z M 540.796875 464.875 L 507.777344 720.738281 C 507.722656 721.214844 508.085938 721.632812 508.535156 721.660156 L 513.804688 723.566406 L 511.5625 735.34375 C 510.636719 740.191406 507.890625 744.507812 503.855469 747.367188 L 498.164062 751.40625 L 498.136719 751.40625 L 494.269531 754.152344 L 465.261719 451.671875 L 481.9375 452.261719 L 483.730469 404.265625 L 436.925781 403.957031 L 441.523438 368.242188 L 445.726562 367.878906 L 453.65625 367.429688 L 459.433594 369.335938 L 460.523438 371.578125 C 460.496094 371.832031 460.636719 372.085938 460.890625 372.167969 L 507.023438 384.082031 C 510.722656 385.203125 514.617188 385.597656 518.457031 385.261719 L 525.859375 384.617188 C 531.800781 384.082031 537.769531 380.578125 542.421875 376.933594 L 547.804688 402.894531 Z M 1153.53125 626.359375 L 1158.777344 727.703125 L 1144.503906 735.714844 C 1142.359375 736.914062 1139.945312 737.546875 1137.488281 737.546875 L 1118.449219 737.546875 L 1138.992188 723.269531 C 1142.472656 720.851562 1144.375 716.742188 1143.972656 712.519531 L 1135.144531 620.214844 C 1136.28125 620.683594 1137.457031 621.066406 1138.605469 621.507812 C 1143.464844 623.367188 1148.417969 625.035156 1153.53125 626.359375 Z M 1216.125 630.191406 C 1224.335938 660.015625 1230.785156 694.160156 1234.457031 727.941406 L 1232.59375 729.457031 L 1211.585938 746.527344 C 1207.128906 750.144531 1201.550781 752.136719 1195.804688 752.136719 L 1181.035156 752.136719 L 1200.289062 736.632812 C 1203.457031 734.082031 1204.605469 729.738281 1203.121094 725.953125 L 1179.996094 667.136719 C 1179.074219 681.96875 1177.699219 696.097656 1175.765625 708.179688 L 1175.378906 694.480469 L 1174.195312 652.308594 L 1173.550781 630.105469 C 1176.15625 630.441406 1178.820312 630.695312 1181.484375 630.890625 C 1191.625 631.609375 1202.1875 631.4375 1213.128906 630.441406 C 1214.132812 630.351562 1215.117188 630.296875 1216.125 630.191406 Z M 1115.5625 441.410156 C 1115.589844 441.550781 1115.617188 441.664062 1115.644531 441.777344 L 1093.53125 447.4375 C 1089.664062 448.421875 1085.601562 448.335938 1081.789062 447.1875 L 1059.589844 440.457031 C 1059.449219 440.429688 1059.367188 440.347656 1059.28125 440.289062 C 1059.179688 440.1875 1059.128906 440.0625 1059.109375 439.921875 C 1059.09375 439.800781 1059.101562 439.667969 1059.140625 439.535156 C 1059.171875 439.476562 1059.199219 439.394531 1059.226562 439.335938 L 1059.28125 439.28125 L 1067.71875 428.882812 C 1068.558594 427.871094 1069.90625 427.394531 1071.167969 427.648438 L 1086.695312 430.898438 C 1086.890625 430.957031 1087.113281 430.957031 1087.308594 430.957031 C 1088.347656 430.957031 1089.328125 430.394531 1089.832031 429.441406 L 1091.765625 425.796875 L 1085.125 422.097656 L 1079.910156 421.144531 C 1077.894531 420.78125 1075.761719 421.226562 1074.136719 422.488281 C 1071.277344 424.703125 1067.832031 424.816406 1065.167969 424.394531 C 1063.261719 424.085938 1062.644531 421.648438 1064.132812 420.441406 L 1074.585938 411.976562 C 1075.929688 410.882812 1077.445312 410.125 1079.042969 409.648438 C 1080.890625 409.0625 1082.882812 408.894531 1084.84375 409.171875 L 1102.023438 413.042969 C 1103.34375 413.351562 1104.714844 413.40625 1106.0625 413.238281 L 1114.105469 412.230469 L 1114.191406 413.980469 L 1115.414062 438.339844 L 1115.421875 438.496094 L 1115.449219 438.972656 Z M 1272.839844 341.121094 L 1280.914062 358.929688 L 1276.195312 363.015625 L 1276.050781 363.144531 C 1275.515625 363.589844 1274.984375 363.984375 1274.453125 364.40625 C 1267.191406 370.09375 1258.222656 373.234375 1248.976562 373.234375 L 1242.164062 373.234375 C 1238.964844 373.234375 1236.472656 370.691406 1236.375 367.589844 C 1236.367188 367.351562 1236.339844 367.117188 1236.363281 366.871094 L 1236.472656 365.679688 L 1236.644531 363.8125 L 1236.710938 363.28125 L 1236.867188 362.078125 C 1236.863281 362.078125 1236.863281 362.078125 1236.859375 362.078125 L 1236.863281 362.0625 C 1236.851562 362.070312 1236.839844 362.074219 1236.828125 362.078125 C 1236.824219 362.078125 1236.820312 362.078125 1236.8125 362.078125 C 1236.808594 362.078125 1236.808594 362.078125 1236.808594 362.078125 L 1237.378906 355.976562 C 1234.308594 356.023438 1231.355469 354.476562 1229.914062 351.753906 C 1228.238281 348.59375 1227.011719 345.171875 1226.191406 341.535156 C 1226.121094 341.222656 1225.863281 340.984375 1225.542969 340.933594 C 1224.804688 340.808594 1224.101562 340.648438 1223.449219 340.464844 C 1220.238281 339.582031 1218.449219 336.203125 1219.519531 333.050781 C 1220.507812 330.128906 1221.972656 326.3125 1223.886719 322.632812 C 1224.957031 320.582031 1225.648438 318.34375 1225.972656 316.054688 C 1226.15625 314.773438 1226.347656 313.570312 1226.5625 312.382812 L 1226.570312 312.382812 L 1229.886719 312.824219 L 1248.980469 315.367188 C 1252.953125 315.894531 1256.5625 318.183594 1258.464844 321.609375 C 1258.78125 322.214844 1259.089844 322.824219 1259.304688 323.476562 C 1259.453125 323.929688 1259.582031 324.386719 1259.683594 324.855469 L 1261.339844 332.730469 C 1261.394531 332.996094 1261.519531 333.21875 1261.6875 333.394531 C 1261.9375 333.652344 1262.285156 333.800781 1262.640625 333.8125 C 1263 333.824219 1263.367188 333.699219 1263.65625 333.410156 C 1265.308594 331.773438 1266.617188 329.847656 1267.601562 327.65625 C 1268.589844 325.464844 1269.253906 323.011719 1269.625 320.3125 C 1279.507812 312.609375 1290.578125 327.480469 1272.839844 341.121094 Z M 1139.695312 536.546875 C 1138.152344 535.230469 1137.929688 532.960938 1139.160156 531.363281 L 1148.011719 519.800781 L 1148.21875 523.738281 L 1148.222656 523.863281 L 1148.4375 528.121094 L 1148.828125 535.503906 L 1149.300781 544.667969 C 1148.988281 544.519531 1148.683594 544.351562 1148.410156 544.117188 L 1143.121094 539.523438 L 1140.867188 537.566406 Z M 1171.113281 535.324219 L 1170.890625 535.324219 L 1170.214844 511.355469 L 1170.132812 508.492188 L 1170.046875 505.550781 L 1177.699219 503.253906 L 1186.726562 500.535156 C 1186.585938 501.066406 1186.667969 501.65625 1187.003906 502.132812 L 1187.140625 502.335938 L 1187.398438 502.722656 L 1201.074219 522.738281 C 1201.132812 522.820312 1201.242188 522.847656 1201.300781 522.933594 C 1199.5625 525.0625 1197.628906 526.941406 1195.523438 528.539062 C 1189.105469 533.390625 1181.035156 535.6875 1171.113281 535.324219 Z M 1171.113281 535.324219 " fill-opacity="1" fill-rule="nonzero"/><path fill="#ff8ced" d="M 1202.671875 167.042969 L 1101.5625 167.039062 C 1097.460938 167.039062 1094.136719 170.367188 1094.136719 174.464844 L 1094.136719 231.441406 C 1094.136719 235.542969 1097.460938 238.867188 1101.5625 238.867188 L 1157.917969 238.867188 L 1176.949219 256.976562 C 1177.761719 257.753906 1179.109375 257.175781 1179.109375 256.050781 L 1179.109375 238.867188 L 1202.671875 238.867188 C 1206.773438 238.867188 1210.097656 235.542969 1210.097656 231.441406 L 1210.097656 174.46875 C 1210.097656 170.367188 1206.773438 167.042969 1202.671875 167.042969 Z M 1125.125 208.757812 C 1121.921875 208.757812 1119.324219 206.15625 1119.324219 202.953125 C 1119.324219 199.75 1121.921875 197.152344 1125.125 197.152344 C 1128.328125 197.152344 1130.925781 199.75 1130.925781 202.953125 C 1130.925781 206.15625 1128.328125 208.757812 1125.125 208.757812 Z M 1152.117188 208.757812 C 1148.914062 208.757812 1146.316406 206.15625 1146.316406 202.953125 C 1146.316406 199.75 1148.914062 197.152344 1152.117188 197.152344 C 1155.320312 197.152344 1157.917969 199.75 1157.917969 202.953125 C 1157.917969 206.15625 1155.320312 208.757812 1152.117188 208.757812 Z M 1179.109375 208.757812 C 1175.90625 208.757812 1173.308594 206.160156 1173.308594 202.953125 C 1173.308594 199.75 1175.90625 197.152344 1179.109375 197.152344 C 1182.3125 197.152344 1184.910156 199.75 1184.910156 202.953125 C 1184.910156 206.160156 1182.3125 208.757812 1179.109375 208.757812 Z M 1037.71875 212.457031 C 1041.21875 212.457031 1044.058594 209.617188 1044.058594 206.117188 L 1044.058594 146.976562 C 1044.058594 143.472656 1041.21875 140.632812 1037.71875 140.632812 L 934.4375 140.632812 C 930.9375 140.632812 928.097656 143.472656 928.097656 146.976562 L 928.097656 206.117188 C 928.097656 209.617188 930.9375 212.457031 934.4375 212.457031 L 991.492188 212.457031 L 983.894531 230.054688 C 983.554688 230.84375 984.40625 231.613281 985.152344 231.195312 L 1018.871094 212.457031 Z M 959.085938 182.347656 C 955.882812 182.347656 953.285156 179.75 953.285156 176.546875 C 953.285156 173.339844 955.882812 170.742188 959.085938 170.742188 C 962.289062 170.742188 964.886719 173.339844 964.886719 176.546875 C 964.886719 179.75 962.289062 182.347656 959.085938 182.347656 Z M 986.078125 182.347656 C 982.875 182.347656 980.277344 179.75 980.277344 176.546875 C 980.277344 173.339844 982.875 170.742188 986.078125 170.742188 C 989.28125 170.742188 991.878906 173.339844 991.878906 176.546875 C 991.878906 179.75 989.28125 182.347656 986.078125 182.347656 Z M 1013.070312 182.347656 C 1009.867188 182.347656 1007.269531 179.75 1007.269531 176.546875 C 1007.269531 173.339844 1009.867188 170.742188 1013.070312 170.742188 C 1016.273438 170.742188 1018.871094 173.339844 1018.871094 176.546875 C 1018.871094 179.75 1016.273438 182.347656 1013.070312 182.347656 Z M 574.714844 29.082031 L 473.601562 29.082031 C 469.503906 29.082031 466.179688 32.40625 466.179688 36.507812 L 466.179688 93.480469 C 466.179688 97.582031 469.503906 100.90625 473.601562 100.90625 L 529.960938 100.90625 L 548.113281 118.1875 C 549.257812 119.277344 551.152344 118.464844 551.152344 116.882812 L 551.152344 100.90625 L 574.714844 100.90625 C 578.816406 100.90625 582.140625 97.582031 582.140625 93.480469 L 582.140625 36.507812 C 582.140625 32.40625 578.816406 29.082031 574.714844 29.082031 Z M 497.167969 70.796875 C 493.960938 70.796875 491.367188 68.199219 491.367188 64.996094 C 491.367188 61.789062 493.960938 59.191406 497.167969 59.191406 C 500.371094 59.191406 502.96875 61.789062 502.96875 64.996094 C 502.96875 68.199219 500.371094 70.796875 497.167969 70.796875 Z M 524.160156 70.796875 C 520.953125 70.796875 518.359375 68.199219 518.359375 64.996094 C 518.359375 61.789062 520.953125 59.191406 524.160156 59.191406 C 527.363281 59.191406 529.960938 61.789062 529.960938 64.996094 C 529.960938 68.199219 527.363281 70.796875 524.160156 70.796875 Z M 551.152344 70.796875 C 547.949219 70.796875 545.351562 68.199219 545.351562 64.996094 C 545.351562 61.789062 547.949219 59.191406 551.152344 59.191406 C 554.355469 59.191406 556.953125 61.789062 556.953125 64.996094 C 556.953125 68.199219 554.355469 70.796875 551.152344 70.796875 Z M 372.023438 145.5625 C 371.335938 147.152344 373.054688 148.710938 374.574219 147.871094 L 405.929688 130.445312 L 424.773438 130.445312 C 428.277344 130.445312 431.113281 127.605469 431.113281 124.101562 L 431.113281 64.960938 C 431.113281 61.460938 428.277344 58.621094 424.773438 58.621094 L 321.496094 58.621094 C 317.992188 58.621094 315.152344 61.460938 315.152344 64.960938 L 315.152344 124.101562 C 315.152344 127.605469 317.992188 130.445312 321.496094 130.445312 L 378.546875 130.445312 Z M 400.125 88.730469 C 403.332031 88.730469 405.929688 91.328125 405.929688 94.53125 C 405.929688 97.738281 403.332031 100.335938 400.125 100.335938 C 396.921875 100.335938 394.324219 97.738281 394.324219 94.53125 C 394.324219 91.328125 396.921875 88.730469 400.125 88.730469 Z M 346.140625 100.335938 C 342.9375 100.335938 340.339844 97.738281 340.339844 94.53125 C 340.339844 91.328125 342.9375 88.730469 346.140625 88.730469 C 349.347656 88.730469 351.945312 91.328125 351.945312 94.53125 C 351.945312 97.738281 349.347656 100.335938 346.140625 100.335938 Z M 373.132812 100.335938 C 369.929688 100.335938 367.332031 97.738281 367.332031 94.53125 C 367.332031 91.328125 369.929688 88.730469 373.132812 88.730469 C 376.339844 88.730469 378.9375 91.328125 378.9375 94.53125 C 378.9375 97.738281 376.339844 100.335938 373.132812 100.335938 Z M 681.71875 259.640625 C 679.644531 263.652344 677.488281 267.660156 674.742188 271.613281 C 674.097656 272.507812 672.273438 272.734375 670.707031 272.0625 C 669.527344 271.558594 668.800781 270.6875 668.769531 269.875 C 668.601562 264.914062 669.386719 260.089844 670.621094 255.410156 C 673.085938 246.523438 677.125 238.058594 682.871094 230.796875 C 676.3125 232.675781 669.976562 233.488281 663.304688 234.355469 C 659.914062 234.664062 656.46875 234.917969 652.683594 234.664062 C 651.816406 234.582031 650.722656 233.207031 650.273438 231.523438 C 649.964844 230.320312 650.078125 229.28125 650.554688 228.832031 C 653.46875 226.113281 656.859375 224.265625 660.390625 222.835938 C 667.453125 220.085938 675.191406 219.023438 682.730469 220.285156 C 684.128906 220.535156 685.53125 220.871094 686.90625 221.292969 C 676.621094 212.125 666.699219 203.265625 656.578125 194.242188 C 652.601562 190.484375 648.589844 186.644531 645.003906 182.128906 C 644.164062 181.09375 644.472656 179.242188 645.703125 178.007812 C 646.601562 177.113281 647.75 176.777344 648.621094 177.113281 C 654.058594 179.101562 659.046875 181.765625 663.839844 184.820312 C 671.574219 189.867188 678.917969 196.007812 684.746094 203.519531 C 683.738281 200.464844 682.703125 197.4375 681.71875 194.351562 C 678.496094 184.34375 675.414062 174.195312 672.304688 163.9375 C 670.371094 157.097656 668.519531 150.144531 667.34375 142.910156 C 667.089844 141.230469 668.265625 139.601562 670.003906 139.324219 C 671.265625 139.097656 672.472656 139.660156 673.144531 140.667969 C 677.179688 146.78125 680.488281 153.226562 683.457031 159.871094 C 688.726562 171.898438 692.875 184.652344 694.667969 197.914062 C 696.6875 187.371094 700.441406 177.082031 705.152344 167.441406 C 708.152344 161.636719 711.542969 156.03125 715.859375 150.984375 C 716.839844 149.808594 718.773438 149.75 720.148438 150.816406 C 721.15625 151.601562 721.605469 152.777344 721.378906 153.789062 C 719.921875 160.09375 718.042969 166.066406 716.136719 172.011719 C 712.214844 183.839844 708.320312 195.472656 703.777344 207.164062 C 703.527344 207.863281 703.21875 208.566406 702.964844 209.238281 C 703.359375 209.015625 703.777344 208.761719 704.199219 208.507812 C 710.449219 205.144531 717.597656 203.433594 724.6875 203.238281 C 729.394531 203.238281 734.160156 203.941406 738.53125 205.875 C 739.542969 206.324219 740.019531 208.0625 739.597656 209.742188 C 739.316406 210.976562 738.644531 211.84375 737.972656 212.042969 C 733.796875 213.246094 729.898438 214.089844 726.058594 215.042969 C 719.640625 216.582031 713.53125 218.40625 707.199219 220.367188 C 710.476562 220.789062 713.671875 221.796875 716.613281 223.226562 C 719.753906 224.851562 722.613281 227.09375 724.628906 230.179688 C 725.078125 230.910156 724.574219 232.5625 723.480469 233.90625 C 722.695312 234.890625 721.855469 235.476562 721.324219 235.449219 C 718.101562 235.253906 715.382812 234.832031 712.691406 234.441406 C 707.367188 233.570312 702.433594 232.871094 696.910156 231.75 C 696.632812 231.691406 696.351562 231.636719 696.042969 231.582031 L 708.960938 617.6875 C 708.960938 617.714844 708.960938 617.714844 708.960938 617.742188 L 706.160156 617.742188 L 693.296875 233.261719 C 690.128906 242.542969 685.953125 250.953125 681.71875 259.640625 Z M 778.136719 377.355469 C 773.175781 379.851562 768.859375 383.1875 764.878906 386.886719 C 760.421875 391.230469 756.328125 396.023438 752.882812 401.238281 C 754.816406 391.398438 756.5 381.617188 758.179688 371.71875 C 759.1875 365.300781 760.199219 358.882812 760.730469 352.179688 C 760.816406 351.085938 760.199219 349.964844 759.078125 349.351562 C 757.535156 348.480469 755.65625 348.902344 754.816406 350.273438 C 751.285156 356.160156 748.734375 362.46875 746.632812 368.917969 C 743.382812 379.511719 741.167969 390.613281 740.746094 401.6875 C 737.886719 395.914062 734.246094 390.53125 729.984375 385.679688 C 728.863281 384.476562 727.6875 383.269531 726.480469 382.121094 L 728.332031 298.832031 C 728.777344 298.859375 729.199219 298.890625 729.675781 298.917969 C 730.851562 300.207031 732.003906 301.355469 733.179688 302.421875 C 737.242188 306.066406 741.390625 308.757812 745.960938 311.390625 C 748.285156 312.652344 750.695312 313.859375 753.667969 314.8125 C 754.144531 314.953125 755.097656 314.589844 756.105469 313.832031 C 757.480469 312.792969 758.433594 311.363281 758.234375 310.605469 C 757.339844 307.355469 755.601562 304.636719 753.554688 302.253906 C 749.828125 298.160156 744.980469 294.824219 739.597656 293.394531 C 740.496094 293.085938 741.363281 292.75 742.261719 292.414062 C 750.417969 289.246094 757.816406 284.984375 764.933594 280.023438 C 768.464844 277.472656 771.886719 274.78125 775.023438 271.386719 C 775.53125 270.855469 775.613281 269.761719 775.164062 268.558594 C 774.578125 266.929688 773.230469 265.753906 772.164062 265.894531 C 767.542969 266.539062 763.308594 267.941406 759.1875 269.621094 C 754.929688 271.5 750.753906 273.601562 746.773438 276.042969 C 753.472656 268.585938 760.113281 261.128906 766.8125 253.644531 C 771.042969 248.878906 775.359375 244.167969 779.480469 238.980469 C 780.125 238.140625 780.265625 236.851562 779.675781 235.703125 C 778.894531 234.132812 777.097656 233.402344 775.667969 234.074219 C 769.449219 236.933594 763.84375 240.777344 758.601562 245.035156 C 749.910156 252.382812 742.035156 260.960938 736.011719 270.605469 C 737.101562 268.191406 738.140625 265.753906 739.148438 263.316406 C 744.921875 249.355469 749.800781 235.199219 754.339844 220.816406 C 756.554688 213.582031 758.683594 206.351562 760.253906 198.78125 C 760.507812 197.578125 760.058594 196.257812 759.019531 195.503906 C 757.589844 194.464844 755.601562 194.828125 754.566406 196.34375 C 750.109375 202.734375 746.492188 209.574219 743.269531 216.527344 C 736.488281 231.75 731.019531 247.726562 728.5 264.15625 C 728.386719 264.042969 728.246094 263.988281 728.078125 263.929688 C 726.734375 259.503906 725.050781 255.183594 723.203125 251.09375 C 721.042969 246.464844 718.632812 242.007812 715.632812 237.75 C 715.15625 237.046875 714.066406 236.683594 712.804688 236.878906 C 711.09375 237.160156 709.71875 238.394531 709.75 239.625 C 709.832031 244.980469 710.8125 250.082031 711.992188 255.015625 C 713.953125 262.390625 716.082031 269.511719 718.410156 276.378906 C 719.472656 279.546875 720.566406 282.65625 721.714844 285.796875 C 718.128906 284.507812 714.121094 284.339844 710.449219 285.378906 C 707.535156 286.21875 704.789062 287.816406 702.964844 290.421875 C 702.683594 290.84375 702.769531 291.824219 703.300781 292.972656 C 704.003906 294.542969 705.09375 295.890625 705.65625 296.03125 C 708.121094 296.5625 710 296.871094 711.820312 297.179688 C 714.539062 297.460938 716.980469 298.019531 719.667969 298.273438 C 721.40625 298.46875 723.285156 298.523438 725.527344 298.636719 L 723.734375 379.652344 C 721.546875 377.804688 719.191406 376.121094 716.671875 374.691406 C 715.859375 374.242188 714.679688 374.382812 713.671875 375.140625 C 712.296875 376.175781 711.683594 377.972656 712.296875 379.09375 C 714.960938 383.941406 717.765625 388.371094 720.484375 392.828125 C 721.464844 394.371094 722.417969 395.914062 723.339844 397.453125 L 722.753906 424.453125 C 722.136719 424.675781 721.546875 424.898438 720.957031 425.179688 C 718.242188 426.496094 715.746094 428.375 714.09375 431.09375 C 713.8125 431.542969 713.953125 432.523438 714.539062 433.644531 C 715.296875 435.1875 716.503906 436.449219 717.121094 436.503906 C 719.136719 436.671875 720.847656 436.703125 722.472656 436.671875 L 718.4375 617.714844 L 718.4375 617.742188 L 721.238281 617.742188 L 725.273438 436.535156 C 728.078125 436.308594 730.769531 436.195312 733.570312 435.777344 C 736.207031 435.414062 739.007812 434.738281 742.429688 433.757812 L 726.285156 617.601562 L 726.285156 617.742188 L 729.085938 617.742188 L 745.203125 434.09375 C 745.257812 434.121094 745.289062 434.121094 745.34375 434.121094 C 745.566406 437.039062 746.070312 439.476562 746.660156 441.777344 C 747.976562 446.878906 749.828125 451.222656 752.097656 455.765625 C 753.273438 458.035156 754.5625 460.304688 756.441406 462.6875 C 756.75 463.082031 757.730469 463.304688 758.992188 463.25 C 760.703125 463.195312 762.328125 462.578125 762.582031 461.847656 C 763.730469 458.734375 763.871094 455.566406 763.53125 452.484375 C 762.832031 447.914062 761.261719 443.402344 758.542969 439.617188 C 756.945312 437.429688 754.929688 435.550781 752.574219 434.039062 C 756.359375 434.375 759.832031 434.207031 763.5625 433.785156 C 765.71875 433.476562 767.933594 433.113281 770.511719 432.214844 C 770.933594 432.078125 771.492188 431.261719 771.941406 430.058594 C 772.558594 428.460938 772.671875 426.75 772.195312 426.246094 C 770.0625 424.03125 767.457031 422.769531 764.765625 421.957031 C 760.84375 420.976562 756.667969 420.863281 752.742188 421.929688 C 753.667969 420.863281 754.5625 419.796875 755.433594 418.734375 C 761.9375 410.882812 767.792969 402.921875 773.792969 394.765625 C 776.734375 390.644531 779.675781 386.523438 782.367188 381.898438 C 782.789062 381.140625 782.675781 379.992188 781.949219 378.925781 C 780.996094 377.496094 779.285156 376.765625 778.136719 377.355469 Z M 738.476562 424.871094 C 734.441406 423.019531 729.871094 422.714844 725.554688 423.636719 L 726.03125 402.023438 C 728.164062 405.667969 730.234375 409.371094 732.339844 413.042969 C 734.664062 417.164062 737.046875 421.285156 739.570312 425.488281 C 739.203125 425.292969 738.839844 425.066406 738.476562 424.871094 Z M 768.410156 645.847656 L 768.410156 662.988281 L 680.265625 662.988281 L 680.265625 645.847656 Z M 1059.28125 451.617188 L 1089.582031 451.617188 L 1089.582031 465.71875 L 1003.898438 465.71875 L 1003.898438 451.925781 L 1005.132812 451.617188 L 1034.199219 451.617188 L 1034.199219 447.605469 L 1034.769531 447.449219 L 1038.765625 446.347656 C 1038.976562 446.289062 1039.140625 446.148438 1039.242188 445.972656 C 1039.265625 445.9375 1039.246094 445.886719 1039.261719 445.847656 C 1039.316406 445.703125 1039.371094 445.550781 1039.332031 445.390625 L 1039.328125 445.363281 L 1038.039062 439.871094 L 1046.445312 437.488281 C 1048.828125 436.785156 1051.351562 436.871094 1053.675781 437.65625 L 1059.140625 439.535156 C 1059.101562 439.667969 1059.09375 439.800781 1059.109375 439.921875 C 1059.128906 440.0625 1059.179688 440.1875 1059.28125 440.289062 Z M 1105.5 299.785156 L 1105.5 394.457031 C 1105.5 395.6875 1104.519531 396.699219 1103.285156 396.699219 L 1059.28125 396.699219 L 1059.28125 405.25 C 1059.03125 405.332031 1058.777344 405.359375 1058.527344 405.472656 L 1045.074219 410.464844 C 1044.0625 410.855469 1043 411.078125 1041.933594 411.191406 L 1034.199219 411.921875 L 1034.199219 396.699219 L 1023.519531 396.699219 L 1026.878906 394.605469 L 1028.871094 393.363281 L 1029.605469 394.824219 L 1029.769531 395.15625 C 1029.9375 395.492188 1030.328125 395.632812 1030.667969 395.4375 L 1031.476562 394.976562 L 1041.933594 389.015625 C 1042.214844 388.847656 1042.324219 388.457031 1042.1875 388.148438 L 1039.269531 382.402344 L 1042.464844 379.878906 C 1043.503906 379.066406 1044.597656 378.363281 1045.773438 377.746094 L 1064.410156 367.964844 C 1067.328125 366.449219 1069.625 364.011719 1070.96875 361.039062 L 1079.433594 342.285156 C 1079.882812 341.304688 1079.492188 340.15625 1078.566406 339.59375 L 1071.195312 335.332031 C 1069.90625 334.605469 1068.28125 334.828125 1067.1875 335.808594 C 1064.441406 338.332031 1062.253906 341.164062 1060.824219 344.304688 C 1060.375 345.285156 1059.730469 346.152344 1058.863281 346.800781 L 1050.171875 353.164062 C 1049.867188 353.386719 1049.445312 353.164062 1049.445312 352.796875 L 1049.304688 348.761719 C 1049.25 347.640625 1049.527344 346.492188 1050.0625 345.507812 C 1051.238281 343.40625 1051.15625 341.726562 1050.679688 340.464844 C 1050.035156 338.894531 1047.902344 338.613281 1046.808594 339.929688 L 1036.496094 352.519531 C 1034.730469 354.648438 1032.570312 356.441406 1030.132812 357.730469 L 1027.527344 359.105469 L 1024.246094 352.601562 C 1024.109375 352.265625 1023.6875 352.152344 1023.378906 352.320312 L 1012.335938 358.265625 C 1012.054688 358.414062 1011.953125 358.753906 1012.050781 359.050781 C 1012.058594 359.078125 1012.042969 359.109375 1012.054688 359.132812 L 1012.058594 359.136719 L 1013.710938 362.496094 L 991.191406 373.929688 L 987.980469 375.5625 L 987.980469 299.785156 C 987.980469 298.554688 988.960938 297.542969 990.195312 297.542969 L 1103.285156 297.542969 C 1104.519531 297.542969 1105.5 298.554688 1105.5 299.785156 Z M 441.523438 305.085938 L 441.523438 332.191406 L 431.878906 338.191406 L 413.355469 334.996094 L 409.625 351.730469 L 428.964844 369.28125 L 441.523438 368.242188 L 441.523438 399.894531 L 335.773438 399.894531 L 335.773438 391.960938 L 336.164062 392.042969 C 338.96875 392.714844 341.910156 392.519531 344.628906 391.484375 L 361.503906 385.089844 C 362.457031 384.726562 363.042969 383.800781 363.015625 382.765625 L 362.230469 367.121094 C 362.175781 365.832031 361.054688 364.824219 359.765625 364.90625 L 346.789062 365.636719 C 343.703125 365.804688 340.734375 364.375 338.96875 361.851562 L 335.773438 357.339844 L 335.773438 305.085938 C 335.773438 303.347656 337.175781 301.945312 338.914062 301.945312 L 438.382812 301.945312 C 440.121094 301.945312 441.523438 303.347656 441.523438 305.085938 Z M 373.980469 285.039062 C 374.273438 284.71875 374.5625 284.386719 374.871094 284.085938 L 374.867188 284.082031 C 374.871094 284.082031 374.875 284.078125 374.875 284.074219 C 378.707031 280.386719 383.6875 278.484375 388.648438 278.484375 C 398.90625 278.484375 409.292969 286.542969 409.292969 301.941406 L 403.6875 301.941406 C 403.6875 289.675781 395.890625 284.089844 388.648438 284.089844 C 385 284.089844 381.210938 285.515625 378.351562 288.492188 L 378.347656 288.488281 C 378.085938 288.761719 377.839844 289.058594 377.597656 289.355469 C 375.191406 292.277344 373.613281 296.421875 373.609375 301.941406 L 368.007812 301.941406 C 368.007812 295.425781 369.890625 290.257812 372.816406 286.429688 C 373.1875 285.945312 373.574219 285.480469 373.980469 285.039062 Z M 373.980469 285.039062 " fill-opacity="1" fill-rule="nonzero"/><g clip-path="url(#3aa3c2fb5b)"><path fill="#ab16c1" d="M 1146.316406 202.953125 C 1146.316406 199.75 1148.914062 197.152344 1152.117188 197.152344 C 1155.320312 197.152344 1157.917969 199.75 1157.917969 202.953125 C 1157.917969 206.15625 1155.320312 208.757812 1152.117188 208.757812 C 1148.914062 208.757812 1146.316406 206.15625 1146.316406 202.953125 Z M 1179.109375 208.757812 C 1182.3125 208.757812 1184.910156 206.160156 1184.910156 202.953125 C 1184.910156 199.75 1182.3125 197.152344 1179.109375 197.152344 C 1175.90625 197.152344 1173.308594 199.75 1173.308594 202.953125 C 1173.308594 206.160156 1175.90625 208.757812 1179.109375 208.757812 Z M 1125.125 208.757812 C 1128.328125 208.757812 1130.925781 206.15625 1130.925781 202.953125 C 1130.925781 199.75 1128.328125 197.152344 1125.125 197.152344 C 1121.921875 197.152344 1119.324219 199.75 1119.324219 202.953125 C 1119.324219 206.15625 1121.921875 208.757812 1125.125 208.757812 Z M 986.078125 182.347656 C 989.28125 182.347656 991.878906 179.75 991.878906 176.546875 C 991.878906 173.339844 989.28125 170.742188 986.078125 170.742188 C 982.875 170.742188 980.277344 173.339844 980.277344 176.546875 C 980.277344 179.75 982.875 182.347656 986.078125 182.347656 Z M 1013.070312 182.347656 C 1016.273438 182.347656 1018.871094 179.75 1018.871094 176.546875 C 1018.871094 173.339844 1016.273438 170.742188 1013.070312 170.742188 C 1009.867188 170.742188 1007.269531 173.339844 1007.269531 176.546875 C 1007.269531 179.75 1009.867188 182.347656 1013.070312 182.347656 Z M 959.085938 182.347656 C 962.289062 182.347656 964.886719 179.75 964.886719 176.546875 C 964.886719 173.339844 962.289062 170.742188 959.085938 170.742188 C 955.882812 170.742188 953.285156 173.339844 953.285156 176.546875 C 953.285156 179.75 955.882812 182.347656 959.085938 182.347656 Z M 524.160156 70.796875 C 527.363281 70.796875 529.960938 68.199219 529.960938 64.996094 C 529.960938 61.789062 527.363281 59.191406 524.160156 59.191406 C 520.953125 59.191406 518.359375 61.789062 518.359375 64.996094 C 518.359375 68.199219 520.953125 70.796875 524.160156 70.796875 Z M 551.152344 70.796875 C 554.355469 70.796875 556.953125 68.199219 556.953125 64.996094 C 556.953125 61.789062 554.355469 59.191406 551.152344 59.191406 C 547.949219 59.191406 545.351562 61.789062 545.351562 64.996094 C 545.351562 68.199219 547.949219 70.796875 551.152344 70.796875 Z M 497.167969 59.191406 C 493.960938 59.191406 491.367188 61.789062 491.367188 64.996094 C 491.367188 68.199219 493.960938 70.796875 497.167969 70.796875 C 500.371094 70.796875 502.96875 68.199219 502.96875 64.996094 C 502.96875 61.789062 500.371094 59.191406 497.167969 59.191406 Z M 373.132812 100.335938 C 376.339844 100.335938 378.9375 97.738281 378.9375 94.53125 C 378.9375 91.328125 376.339844 88.730469 373.132812 88.730469 C 369.929688 88.730469 367.332031 91.328125 367.332031 94.53125 C 367.332031 97.738281 369.929688 100.335938 373.132812 100.335938 Z M 400.125 100.335938 C 403.332031 100.335938 405.929688 97.738281 405.929688 94.53125 C 405.929688 91.328125 403.332031 88.730469 400.125 88.730469 C 396.921875 88.730469 394.324219 91.328125 394.324219 94.53125 C 394.324219 97.738281 396.921875 100.335938 400.125 100.335938 Z M 346.140625 100.335938 C 349.347656 100.335938 351.945312 97.738281 351.945312 94.53125 C 351.945312 91.328125 349.347656 88.730469 346.140625 88.730469 C 342.9375 88.730469 340.339844 91.328125 340.339844 94.53125 C 340.339844 97.738281 342.9375 100.335938 346.140625 100.335938 Z M 1088.144531 465.71875 L 1003.898438 465.71875 L 968.304688 465.714844 L 968.304688 487.667969 L 979.152344 487.667969 L 978.421875 513.175781 L 978.308594 517.25 L 977.078125 561.28125 L 976.9375 565.824219 L 972.480469 723.90625 L 972.394531 726.875 L 971.65625 753.265625 L 971.609375 754.882812 L 971.023438 775.457031 L 987.445312 775.457031 L 988.511719 754.882812 L 988.578125 753.636719 L 989.886719 728.277344 L 990.222656 721.324219 L 994.34375 641.683594 L 996.976562 590.886719 L 1000.332031 525.953125 L 1000.453125 523.632812 L 1001.40625 505.046875 L 1147.261719 505.046875 L 1148.019531 519.792969 L 1148.21875 523.738281 L 1148.222656 523.863281 L 1148.4375 528.121094 L 1148.828125 535.503906 L 1149.308594 544.660156 L 1152.644531 609.109375 L 1153.539062 626.347656 L 1158.78125 727.691406 L 1158.957031 731.125 L 1159.617188 744.160156 L 1159.675781 745.324219 L 1159.679688 745.347656 L 1161.246094 775.457031 L 1177.671875 775.457031 L 1177.558594 772.234375 L 1177.5 770.152344 L 1177.109375 756.242188 L 1177.082031 755.304688 L 1175.765625 708.179688 L 1175.378906 694.480469 L 1174.195312 652.308594 L 1173.550781 630.105469 L 1173.101562 613.984375 L 1172.90625 607.453125 L 1170.890625 535.324219 L 1170.214844 511.355469 L 1170.132812 508.492188 L 1170.046875 505.550781 L 1169.542969 487.667969 L 1180.390625 487.667969 L 1180.390625 465.71875 Z M 1350.492188 399.894531 L 1342.027344 399.894531 C 1338.242188 399.894531 1334.992188 402.640625 1334.347656 406.371094 L 1310.523438 546.648438 L 1195.1875 546.648438 C 1193.367188 546.648438 1191.882812 548.136719 1191.882812 549.957031 L 1191.882812 570.898438 C 1191.882812 572.722656 1193.367188 574.207031 1195.1875 574.207031 L 1250.265625 574.207031 L 1250.265625 576.347656 L 1250.261719 578.777344 L 1250.261719 752.582031 L 1241.292969 752.582031 C 1241.335938 753.273438 1241.332031 753.96875 1241.351562 754.660156 C 1241.480469 759.054688 1241.171875 763.480469 1240.429688 767.9375 C 1240.285156 768.820312 1240.15625 769.699219 1239.976562 770.582031 L 1297.015625 770.582031 C 1297.015625 760.65625 1288.96875 752.582031 1279.019531 752.582031 L 1273.246094 752.582031 L 1273.246094 574.207031 L 1326.21875 574.207031 C 1329.328125 574.207031 1331.992188 571.964844 1332.496094 568.878906 L 1358.171875 408.921875 C 1358.925781 404.183594 1355.285156 399.894531 1350.492188 399.894531 Z M 963.523438 546.636719 L 851.546875 546.636719 L 827.835938 407.121094 C 827.128906 402.949219 823.511719 399.894531 819.28125 399.894531 L 812.621094 399.894531 C 807.277344 399.894531 803.203125 404.675781 804.050781 409.953125 L 829.570312 568.878906 C 830.066406 571.953125 832.71875 574.214844 835.832031 574.214844 L 888.824219 574.214844 L 888.824219 752.597656 L 883.039062 752.597656 C 873.101562 752.597656 865.046875 760.65625 865.046875 770.59375 L 935.566406 770.59375 C 935.566406 760.65625 927.511719 752.597656 917.574219 752.597656 L 911.789062 752.597656 L 911.789062 574.214844 L 963.523438 574.214844 C 964.375 574.214844 965.152344 573.929688 965.792969 573.464844 C 966.042969 573.28125 966.269531 573.0625 966.472656 572.824219 C 966.808594 572.425781 967.058594 571.949219 967.210938 571.433594 C 967.3125 571.089844 967.382812 570.734375 967.382812 570.355469 L 967.382812 550.496094 C 967.382812 548.363281 965.65625 546.636719 963.523438 546.636719 Z M 1201.300781 522.933594 C 1201.691406 523.355469 1202.253906 523.664062 1202.867188 523.632812 C 1231.035156 522.570312 1253.542969 514.46875 1272.125 494.84375 C 1274.117188 492.601562 1276.019531 490.191406 1277.898438 487.667969 L 1303.265625 487.667969 C 1307.414062 462.074219 1309.933594 436.03125 1311 409.539062 C 1311.390625 400.148438 1309.148438 390.867188 1304.695312 382.765625 C 1304.695312 382.765625 1304.691406 382.765625 1304.691406 382.765625 C 1304.1875 381.859375 1303.652344 380.96875 1303.101562 380.09375 C 1301.601562 377.71875 1299.917969 375.457031 1297.996094 373.347656 C 1294.632812 369.695312 1291.0625 366.414062 1287.304688 363.476562 C 1285.238281 361.855469 1283.125 360.3125 1280.925781 358.9375 L 1276.195312 363.015625 L 1276.050781 363.144531 C 1275.515625 363.589844 1274.984375 363.984375 1274.453125 364.40625 C 1267.191406 370.09375 1258.222656 373.234375 1248.976562 373.234375 L 1242.164062 373.234375 C 1238.964844 373.234375 1236.472656 370.691406 1236.375 367.589844 C 1236.367188 367.351562 1236.339844 367.117188 1236.363281 366.871094 L 1236.472656 365.679688 L 1236.640625 363.816406 L 1236.710938 363.28125 L 1236.867188 362.078125 C 1236.863281 362.078125 1236.863281 362.078125 1236.859375 362.078125 C 1236.847656 362.078125 1236.835938 362.078125 1236.828125 362.078125 C 1236.824219 362.078125 1236.820312 362.078125 1236.8125 362.078125 C 1236.808594 362.078125 1236.808594 362.078125 1236.808594 362.078125 C 1217.804688 369.285156 1200.007812 385.289062 1186.136719 399.503906 C 1179.773438 406.035156 1170.777344 409.371094 1161.722656 408.21875 C 1147.933594 406.484375 1133.386719 405.921875 1115.984375 408.863281 C 1114.832031 409.0625 1113.992188 410.097656 1114.046875 411.277344 L 1114.105469 412.230469 L 1114.191406 413.980469 L 1115.414062 438.339844 L 1115.421875 438.496094 L 1115.449219 438.972656 L 1115.5625 441.410156 C 1115.589844 441.550781 1115.617188 441.664062 1115.644531 441.777344 C 1115.816406 442.589844 1116.375 443.261719 1117.1875 443.515625 C 1137.175781 449.953125 1157.386719 452.742188 1177.898438 451.105469 C 1179.449219 451.015625 1180.996094 450.894531 1182.546875 450.71875 L 1188.125 449.316406 C 1193.621094 447.945312 1198.777344 445.394531 1203.175781 441.832031 L 1211.082031 435.441406 L 1216.574219 478.527344 C 1206.765625 484.667969 1197.066406 491.816406 1187.425781 499.386719 C 1187.0625 499.695312 1186.835938 500.085938 1186.726562 500.535156 C 1186.585938 501.066406 1186.667969 501.65625 1187.003906 502.132812 L 1187.140625 502.335938 L 1187.398438 502.722656 L 1201.074219 522.738281 C 1201.132812 522.820312 1201.242188 522.847656 1201.300781 522.933594 Z M 622.019531 607.398438 L 628.578125 484.722656 C 629.28125 471.574219 628.019531 458.425781 624.878906 445.644531 L 614.230469 402.695312 L 542.953125 402.695312 L 535.21875 462.128906 L 505.648438 721.96875 C 505.59375 722.445312 505.957031 722.867188 506.40625 722.894531 L 513.804688 723.566406 L 544.382812 726.316406 L 551.195312 726.902344 C 551.644531 726.960938 552.035156 726.625 552.089844 726.175781 L 570.785156 584.914062 L 582.277344 728.894531 C 582.304688 729.371094 582.726562 729.734375 583.203125 729.707031 L 588.78125 729.34375 L 621.207031 727.15625 L 630.710938 726.539062 C 631.1875 726.511719 631.550781 726.0625 631.523438 725.585938 L 622.078125 610.84375 C 621.992188 609.695312 621.964844 608.546875 622.019531 607.398438 Z M 495.824219 773.230469 L 494.269531 754.152344 L 469.859375 455.289062 L 487.9375 455.289062 L 487.9375 399.894531 L 88.484375 399.894531 L 88.484375 455.285156 L 106.535156 455.285156 L 81 781.0625 L 98.011719 781.0625 L 134.925781 455.289062 L 259.785156 455.289062 C 259.789062 455.28125 259.789062 455.277344 259.789062 455.273438 L 370.539062 455.273438 C 370.539062 455.277344 370.539062 455.285156 370.539062 455.289062 L 441.492188 455.289062 L 477.675781 766.039062 L 477.878906 767.792969 L 478.109375 769.773438 L 478.679688 774.667969 L 478.773438 775.457031 L 478.769531 775.457031 L 479.414062 781.066406 L 496.457031 781.066406 L 496.007812 775.457031 Z M 495.824219 773.230469 " fill-opacity="1" fill-rule="nonzero"/></g><path fill="#000000" d="M 768.410156 618.621094 L 768.410156 645.847656 L 680.265625 645.847656 L 680.265625 662.988281 L 768.410156 662.988281 L 768.410156 753.957031 C 768.410156 765.832031 758.785156 775.457031 746.914062 775.457031 L 701.757812 775.457031 C 689.886719 775.457031 680.261719 765.832031 680.261719 753.957031 L 680.261719 618.621094 C 680.261719 618.136719 680.65625 617.742188 681.140625 617.742188 L 767.53125 617.742188 C 768.015625 617.742188 768.410156 618.136719 768.410156 618.621094 Z M 1116.484375 610.769531 C 1122.46875 614.417969 1128.699219 617.546875 1135.144531 620.214844 C 1136.28125 620.683594 1137.457031 621.066406 1138.605469 621.507812 C 1143.464844 623.367188 1148.417969 625.035156 1153.53125 626.359375 L 1152.636719 609.117188 L 1149.300781 544.667969 C 1148.988281 544.519531 1148.683594 544.351562 1148.410156 544.117188 L 1143.121094 539.523438 L 1140.867188 537.566406 C 1137.730469 542.085938 1134.976562 546.890625 1132.75 551.996094 L 1112.597656 598.242188 C 1110.609375 602.804688 1112.238281 608.183594 1116.484375 610.769531 Z M 1298.117188 487.667969 L 1277.898438 487.667969 C 1276.019531 490.191406 1274.117188 492.601562 1272.125 494.84375 C 1253.542969 514.46875 1231.035156 522.570312 1202.867188 523.632812 C 1202.253906 523.664062 1201.691406 523.355469 1201.300781 522.933594 C 1199.5625 525.0625 1197.628906 526.941406 1195.523438 528.539062 C 1189.105469 533.390625 1181.035156 535.6875 1171.113281 535.324219 L 1170.890625 535.324219 L 1172.90625 607.453125 L 1173.101562 613.984375 L 1173.550781 630.105469 C 1176.15625 630.441406 1178.820312 630.695312 1181.484375 630.890625 C 1191.625 631.609375 1202.1875 631.4375 1213.128906 630.441406 C 1214.132812 630.351562 1215.117188 630.296875 1216.125 630.191406 C 1217.890625 629.992188 1219.683594 629.824219 1221.480469 629.601562 C 1225.90625 629.039062 1229.4375 625.621094 1230.140625 621.21875 L 1235.128906 589.847656 C 1235.519531 587.410156 1237.089844 585.308594 1239.304688 584.1875 L 1250.261719 578.777344 L 1250.265625 576.347656 L 1250.265625 574.207031 L 1195.1875 574.207031 C 1193.367188 574.207031 1191.882812 572.722656 1191.882812 570.898438 L 1191.882812 549.957031 C 1191.882812 548.136719 1193.367188 546.648438 1195.1875 546.648438 L 1303.742188 546.648438 C 1305.703125 543.285156 1307.074219 539.585938 1307.71875 535.660156 C 1310.132812 520.550781 1308.535156 504.878906 1303.265625 487.667969 Z M 1313.207031 343.375 C 1310.1875 341.3125 1308.425781 337.894531 1308.394531 334.234375 C 1308.316406 325.328125 1303.035156 318.632812 1295.578125 315.628906 C 1293.890625 314.949219 1292.472656 313.777344 1291.34375 312.359375 C 1284.21875 282.6875 1253.648438 285.691406 1253.648438 285.691406 C 1253.648438 285.691406 1244.867188 285.9375 1240.550781 287.234375 C 1236.316406 288.503906 1232.554688 290.285156 1228.953125 292.867188 C 1222.863281 297.234375 1219.34375 305.292969 1226.558594 312.371094 L 1226.558594 312.382812 L 1226.570312 312.382812 L 1229.886719 312.824219 L 1248.976562 315.363281 C 1248.980469 315.363281 1248.980469 315.367188 1248.980469 315.367188 C 1252.953125 315.894531 1256.5625 318.183594 1258.464844 321.609375 C 1258.78125 322.214844 1259.089844 322.824219 1259.304688 323.476562 C 1259.3125 323.5 1259.324219 323.519531 1259.332031 323.542969 C 1259.472656 323.972656 1259.589844 324.410156 1259.683594 324.855469 L 1261.339844 332.730469 C 1261.394531 332.996094 1261.519531 333.21875 1261.6875 333.394531 C 1261.9375 333.652344 1262.285156 333.800781 1262.640625 333.8125 C 1263 333.824219 1263.367188 333.699219 1263.65625 333.410156 C 1265.308594 331.773438 1266.617188 329.847656 1267.601562 327.65625 C 1268.589844 325.464844 1269.253906 323.011719 1269.625 320.3125 C 1279.507812 312.609375 1290.578125 327.480469 1272.839844 341.121094 L 1280.914062 358.929688 C 1283.121094 360.308594 1285.234375 361.855469 1287.304688 363.476562 C 1291.0625 366.414062 1294.632812 369.695312 1297.996094 373.347656 C 1299.917969 375.457031 1301.601562 377.71875 1303.101562 380.09375 C 1303.652344 380.96875 1304.1875 381.859375 1304.691406 382.765625 C 1309.660156 379.574219 1314.101562 375.03125 1317.800781 368.574219 C 1319.667969 365.316406 1320.9375 361.742188 1321.351562 358.011719 C 1322.214844 350.210938 1319.734375 347.828125 1313.207031 343.375 Z M 888.222656 336.984375 L 888.226562 336.984375 L 893.351562 330.890625 C 892.875 330.457031 892.484375 330.011719 892.0625 329.574219 C 880.816406 317.832031 888.308594 304.476562 898.199219 310.691406 L 899.574219 315.996094 L 905.867188 314.289062 L 908.75 295.53125 L 931.394531 293.902344 C 933.019531 297.089844 934.398438 300.230469 935.605469 303.625 C 937.890625 300.183594 938.316406 296.449219 937.625 292.730469 C 936.683594 287.675781 933.390625 283.328125 928.996094 280.664062 C 923.609375 277.394531 918.101562 275.605469 912.191406 274.867188 C 905.957031 274.09375 899.648438 275.15625 894.035156 277.976562 C 891.808594 279.097656 889.765625 280.351562 887.894531 281.734375 C 879.933594 287.632812 874.835938 296.839844 873.933594 306.707031 C 872.742188 319.777344 879.601562 329.582031 888.222656 336.984375 Z M 951.066406 452.597656 C 954.625 454.785156 958.578125 456.214844 962.726562 456.800781 L 970.796875 457.980469 C 974.835938 458.566406 978.925781 458.34375 982.878906 457.335938 L 1003.898438 451.925781 L 1005.132812 451.617188 L 1022.117188 447.269531 L 1022.734375 449.878906 C 1022.847656 450.328125 1023.324219 450.605469 1023.769531 450.496094 L 1034.199219 447.605469 L 1034.769531 447.449219 L 1038.765625 446.347656 C 1038.976562 446.289062 1039.140625 446.148438 1039.242188 445.972656 C 1039.265625 445.9375 1039.246094 445.886719 1039.261719 445.847656 C 1039.316406 445.703125 1039.371094 445.550781 1039.332031 445.390625 L 1039.328125 445.363281 L 1038.039062 439.871094 L 1034.199219 423.835938 L 1031.421875 412.199219 L 1030.273438 407.433594 C 1030.160156 407.015625 1029.742188 406.734375 1029.320312 406.820312 L 1014.09375 409.644531 C 1013.625 409.734375 1013.320312 410.195312 1013.429688 410.660156 L 1014.1875 413.9375 L 991.457031 416.601562 L 1023.519531 396.699219 L 1026.878906 394.605469 L 1028.871094 393.363281 L 1029.605469 394.824219 L 1029.769531 395.15625 C 1029.9375 395.492188 1030.328125 395.632812 1030.667969 395.4375 L 1031.476562 394.976562 L 1041.933594 389.015625 C 1042.214844 388.847656 1042.324219 388.457031 1042.1875 388.148438 L 1039.269531 382.402344 L 1027.527344 359.105469 L 1024.246094 352.601562 C 1024.109375 352.265625 1023.6875 352.152344 1023.378906 352.320312 L 1012.335938 358.265625 C 1012.054688 358.414062 1011.953125 358.753906 1012.050781 359.050781 C 1012.058594 359.078125 1012.042969 359.109375 1012.058594 359.136719 L 1013.710938 362.496094 L 991.191406 373.929688 L 987.980469 375.5625 L 978.925781 380.160156 C 976.542969 381.363281 973.796875 381.503906 971.304688 380.578125 L 931.972656 365.855469 C 931.113281 365.535156 930.417969 364.894531 930.027344 364.066406 L 926.261719 356.050781 L 885.175781 342.902344 C 878 345.003906 873.933594 349.796875 871.132812 355.683594 L 865.246094 365.414062 C 860.144531 373.933594 857.566406 383.71875 857.820312 393.644531 L 860.117188 496.554688 C 851.851562 511.15625 851.289062 529.597656 855.238281 546.636719 L 963.523438 546.636719 C 965.65625 546.636719 967.382812 548.363281 967.382812 550.496094 L 967.382812 570.355469 C 967.382812 570.734375 967.3125 571.089844 967.210938 571.433594 C 967.0625 571.949219 966.8125 572.429688 966.472656 572.835938 C 966.269531 573.074219 966.039062 573.292969 965.78125 573.476562 L 956.082031 725.082031 C 956.054688 725.363281 956.28125 725.585938 956.53125 725.613281 L 959.8125 725.867188 C 957.738281 734.667969 957.679688 743.332031 959.222656 751.910156 C 959.558594 753.648438 961.101562 754.882812 962.894531 754.882812 L 971.609375 754.882812 L 971.65625 753.265625 L 972.394531 726.875 L 972.480469 723.90625 L 976.9375 565.824219 L 977.078125 561.28125 L 978.308594 517.25 L 978.421875 513.175781 L 943.359375 496.554688 L 946.078125 449.542969 Z M 885.175781 342.902344 C 885.175781 342.902344 885.566406 342.761719 885.175781 342.902344 Z M 1093.503906 763.542969 L 1093.503906 770.523438 C 1093.503906 771.476562 1092.746094 772.234375 1091.820312 772.234375 L 1044.007812 772.234375 C 1043.503906 772.234375 1043.054688 771.953125 1042.800781 771.507812 L 1039.296875 764.890625 C 1039.128906 764.609375 1038.710938 764.609375 1038.570312 764.917969 L 1035.710938 771.03125 C 1035.375 771.757812 1034.617188 772.234375 1033.804688 772.234375 L 1018.949219 772.234375 C 1017.96875 772.234375 1017.101562 771.535156 1016.902344 770.554688 C 1015.867188 765.367188 1015.417969 760.152344 1015.644531 754.882812 L 988.511719 754.882812 L 988.578125 753.636719 L 989.886719 728.277344 L 990.222656 721.324219 L 994.34375 641.683594 L 996.976562 590.886719 L 1000.332031 525.953125 L 1000.453125 523.632812 L 1024.582031 535.070312 C 1031.140625 538.183594 1036.160156 543.875 1038.429688 550.769531 L 1040.476562 556.964844 C 1041.792969 560.945312 1042.660156 565.066406 1043.027344 569.246094 L 1058.496094 736.128906 C 1058.554688 736.660156 1058.160156 737.164062 1057.628906 737.222656 L 1055.386719 737.558594 L 1088.289062 754.910156 C 1091.484375 756.59375 1093.503906 759.929688 1093.503906 763.542969 Z M 1010.066406 726.597656 L 1005.46875 701.757812 L 1000.871094 721.746094 Z M 1241.292969 752.582031 C 1240.789062 744.257812 1238.632812 736.015625 1234.457031 727.941406 L 1232.59375 729.457031 L 1211.585938 746.527344 C 1207.128906 750.144531 1201.550781 752.136719 1195.804688 752.136719 L 1181.035156 752.136719 L 1177.082031 755.304688 L 1177.109375 756.242188 L 1177.5 770.152344 L 1177.558594 772.234375 L 1206.289062 772.234375 C 1208.136719 772.234375 1209.875 771.449219 1211.109375 770.078125 L 1224.8125 754.910156 L 1224.8125 771.394531 C 1224.8125 771.84375 1225.179688 772.234375 1225.65625 772.234375 L 1238.464844 772.234375 C 1239.136719 772.234375 1239.753906 771.730469 1239.894531 771.058594 C 1239.921875 770.917969 1239.949219 770.75 1239.976562 770.582031 C 1240.15625 769.699219 1240.285156 768.820312 1240.429688 767.9375 C 1241.171875 763.480469 1241.480469 759.054688 1241.351562 754.660156 C 1241.332031 753.96875 1241.335938 753.273438 1241.292969 752.582031 Z M 1159.617188 744.160156 L 1158.957031 731.125 L 1158.777344 727.703125 L 1144.503906 735.714844 C 1142.359375 736.914062 1139.945312 737.546875 1137.488281 737.546875 L 1118.449219 737.546875 L 1109.492188 743.769531 C 1107.625 745.070312 1106.507812 747.203125 1106.507812 749.476562 L 1106.507812 754.988281 C 1106.507812 756.101562 1107.410156 757 1108.523438 757 L 1147.667969 757 C 1149.394531 757 1151.027344 756.214844 1152.101562 754.863281 L 1159.679688 745.347656 L 1159.675781 745.324219 Z M 543.796875 740.109375 C 536.871094 744.957031 530.59375 750.285156 524.988281 756.058594 C 522.523438 758.582031 518.597656 759.058594 515.628906 757.152344 C 509.992188 753.535156 504.191406 751.488281 498.164062 751.40625 L 498.136719 751.40625 L 494.269531 754.152344 L 495.824219 773.230469 L 496.007812 775.457031 L 515.851562 775.457031 C 517 775.457031 518.09375 774.980469 518.878906 774.140625 L 530.902344 761.300781 C 530.984375 761.21875 531.125 761.273438 531.125 761.414062 L 531.378906 774.699219 C 531.40625 775.121094 531.742188 775.457031 532.164062 775.457031 L 543.179688 775.457031 C 543.402344 775.457031 543.597656 775.375 543.738281 775.234375 C 543.878906 775.09375 543.964844 774.898438 543.964844 774.671875 L 543.859375 753.257812 C 544.0625 748.988281 544.105469 744.660156 543.796875 740.109375 Z M 621.207031 740.109375 C 614.285156 744.957031 608.007812 750.285156 602.402344 756.058594 C 599.933594 758.582031 596.011719 759.058594 593.039062 757.152344 C 587.40625 753.535156 581.605469 751.488281 575.605469 751.40625 L 575.578125 751.40625 L 555.789062 765.421875 C 554.136719 766.597656 553.15625 768.503906 553.15625 770.523438 L 553.15625 774.589844 C 553.15625 775.066406 553.546875 775.457031 554.023438 775.457031 L 594.691406 775.457031 C 594.917969 775.457031 595.140625 775.347656 595.308594 775.175781 L 608.566406 761.078125 L 608.820312 774.898438 C 608.820312 775.207031 609.070312 775.457031 609.378906 775.457031 L 620.789062 775.457031 C 620.816406 775.457031 620.816406 775.457031 620.84375 775.457031 C 621.152344 775.457031 621.402344 775.234375 621.433594 774.925781 C 622.460938 764.417969 622.527344 754.214844 621.601562 744.324219 C 621.46875 742.917969 621.382812 741.5 621.207031 740.109375 Z M 478.109375 769.773438 L 477.878906 767.792969 L 477.675781 766.035156 C 476.453125 767.183594 475.714844 768.765625 475.714844 770.46875 L 475.714844 773.890625 C 475.714844 774.757812 476.417969 775.457031 477.28125 775.457031 L 478.773438 775.457031 L 478.679688 774.667969 Z M 317.289062 387.617188 L 272.542969 385.660156 L 272.535156 385.660156 L 271.0625 399.878906 L 335.773438 399.878906 L 335.773438 391.957031 L 321.496094 388.59375 C 320.167969 388.011719 318.738281 387.679688 317.289062 387.617188 Z M 621.960938 311.949219 C 620.578125 301.441406 616.832031 291.300781 610.867188 282.378906 L 610.039062 281.140625 L 597.046875 261.6875 L 597.042969 261.691406 L 582.671875 265.613281 L 559.210938 272.003906 C 558.988281 272.0625 558.820312 272.203125 558.621094 272.3125 C 558.0625 272.59375 557.613281 272.984375 557.332031 273.546875 L 540.402344 308.335938 C 537.011719 315.34375 535.582031 323.136719 536.3125 330.875 L 536.621094 334.238281 L 525.015625 346.265625 C 523.449219 347.890625 521.207031 348.675781 518.933594 348.394531 L 463.972656 341.332031 C 463.691406 341.277344 463.410156 341.472656 463.382812 341.78125 L 463.214844 342.902344 L 459.433594 369.335938 L 459.011719 372.195312 C 458.984375 372.449219 459.125 372.699219 459.375 372.785156 L 505.902344 386.746094 C 509.601562 387.867188 513.496094 388.257812 517.335938 387.921875 L 524.738281 387.277344 C 530.679688 386.746094 536.285156 384.503906 540.9375 380.859375 L 542.953125 402.695312 L 614.230469 402.695312 L 622.1875 328.378906 C 622.636719 324.230469 622.695312 320.082031 622.386719 315.988281 C 622.285156 314.636719 622.136719 313.292969 621.960938 311.949219 Z M 222.203125 399.878906 L 222.203125 358.773438 C 222.203125 357.972656 221.554688 357.328125 220.757812 357.328125 L 203.847656 357.328125 L 203.847656 341.859375 L 221.429688 341.859375 C 222.46875 341.859375 223.308594 341.019531 223.308594 339.980469 L 223.308594 316.554688 C 223.308594 315.515625 222.46875 314.675781 221.429688 314.675781 L 177.363281 314.675781 C 176.324219 314.675781 175.484375 315.515625 175.484375 316.554688 L 175.484375 339.980469 C 175.484375 341.019531 176.324219 341.859375 177.363281 341.859375 L 194.945312 341.859375 L 194.945312 357.328125 L 123.148438 357.328125 C 122.347656 357.328125 121.703125 357.972656 121.703125 358.773438 L 121.703125 399.878906 Z M 364.5 566.195312 L 365.132812 566.195312 C 365.824219 566.195312 366.40625 565.683594 366.476562 564.996094 C 369.691406 533.410156 372.5 491.058594 370.539062 455.289062 C 370.539062 455.285156 370.539062 455.277344 370.539062 455.273438 L 259.789062 455.273438 C 259.789062 455.277344 259.789062 455.28125 259.785156 455.289062 C 253.390625 489.730469 250.59375 531.90625 248.339844 564.765625 C 248.285156 565.546875 248.90625 566.195312 249.6875 566.195312 Z M 399.121094 763.199219 C 399.003906 762.792969 398.871094 762.386719 398.679688 762.011719 C 398.601562 761.863281 398.484375 761.734375 398.394531 761.589844 C 398.214844 761.300781 398.050781 761.007812 397.828125 760.75 C 397.714844 760.617188 397.5625 760.511719 397.4375 760.386719 C 397.191406 760.148438 396.960938 759.898438 396.679688 759.699219 C 394.699219 758.285156 392.261719 756.546875 391.660156 756.113281 L 377.21875 757.136719 C 370.894531 757.582031 364.597656 755.945312 359.292969 752.476562 L 333.167969 735.398438 C 330.746094 749.136719 330.515625 761.742188 332.9375 772.980469 C 333.066406 773.578125 333.605469 774 334.214844 774 L 344.433594 774 C 345.144531 774 345.722656 773.421875 345.722656 772.710938 L 345.722656 761.636719 L 354 772.976562 C 354.46875 773.617188 355.21875 774 356.015625 774 L 396.898438 774 C 398.277344 774 399.394531 772.882812 399.394531 771.5 L 399.394531 764.976562 C 399.394531 764.453125 399.332031 763.9375 399.210938 763.441406 C 399.191406 763.355469 399.144531 763.28125 399.121094 763.199219 Z M 267.46875 734.527344 L 239.445312 754.707031 C 236.199219 757.042969 232.300781 758.300781 228.300781 758.300781 L 222.113281 758.300781 C 218.457031 758.300781 216.101562 754.429688 217.777344 751.179688 L 204.117188 762.621094 C 202.613281 763.878906 201.742188 765.742188 201.742188 767.703125 L 201.742188 773.761719 C 201.742188 774.699219 202.503906 775.457031 203.4375 775.457031 L 234.105469 775.457031 C 236.113281 775.457031 238.054688 774.714844 239.550781 773.371094 L 256.828125 757.878906 C 257 757.730469 257.265625 757.847656 257.265625 758.074219 L 257.265625 765.480469 C 257.265625 765.910156 257.617188 766.261719 258.050781 766.261719 L 266.765625 766.261719 C 267.164062 766.261719 267.507812 765.957031 267.554688 765.5625 C 268.640625 756.398438 268.761719 747.453125 267.902344 738.730469 C 267.761719 737.328125 267.664062 735.917969 267.46875 734.527344 Z M 248.269531 307.414062 C 248.28125 307.421875 248.289062 307.429688 248.296875 307.4375 C 255.753906 313.691406 263.910156 318.765625 272.738281 322.855469 C 273.859375 323.390625 275.035156 323.894531 276.1875 324.398438 L 274.027344 331.996094 L 275.765625 344.21875 C 276.1875 347.164062 276.214844 350.160156 275.90625 353.132812 L 275.710938 354.957031 L 315.648438 363.871094 C 318.144531 364.402344 320.75 364.152344 323.078125 363.085938 L 335.773438 357.339844 L 335.773438 305.085938 C 335.773438 303.347656 337.175781 301.945312 338.914062 301.945312 L 368.003906 301.945312 C 368.003906 295.417969 369.886719 290.25 372.816406 286.429688 C 373.1875 285.945312 373.574219 285.480469 373.980469 285.039062 C 374.273438 284.71875 374.5625 284.386719 374.871094 284.085938 L 374.867188 284.082031 L 374.5625 283.667969 C 368.203125 275.535156 360.214844 268.835938 351.105469 263.988281 L 337.792969 256.894531 L 337.988281 258.183594 C 338.210938 259.613281 338.183594 261.070312 337.875 262.472656 L 331.34375 292.636719 C 331.121094 293.675781 329.832031 294.039062 329.074219 293.308594 L 304.1875 268.277344 L 299.394531 263.425781 C 298.160156 262.191406 297.796875 260.34375 298.441406 258.714844 L 298.777344 257.875 L 282.828125 262.640625 C 276.9375 264.382812 271.351562 266.960938 266.148438 270.164062 C 265.238281 270.726562 264.316406 271.265625 263.433594 271.863281 C 259.339844 274.640625 255.53125 277.863281 252.109375 281.480469 L 239.359375 294.878906 C 238.292969 296 238.265625 297.765625 239.300781 298.886719 C 242.152344 301.960938 245.167969 304.785156 248.269531 307.414062 Z M 373.609375 301.945312 L 388.351562 301.945312 L 378.351562 288.492188 L 378.347656 288.488281 C 378.085938 288.761719 377.839844 289.058594 377.597656 289.355469 C 375.191406 292.277344 373.613281 296.421875 373.609375 301.941406 C 373.609375 301.941406 373.609375 301.945312 373.609375 301.945312 Z M 373.609375 301.945312 " fill-opacity="1" fill-rule="nonzero"/></svg>